<?xml version="1.0" standalone="no"?>
<!DOCTYPE svg PUBLIC "-//W3C//DTD SVG 1.1//EN" "http://www.w3.org/Graphics/SVG/1.1/DTD/svg11.dtd" >
<svg xmlns="http://www.w3.org/2000/svg">
<metadata>Generated by IcoMoon</metadata>
<defs>
<font id="RealtyHouse" horiz-adv-x="1024">
<font-face units-per-em="1024" ascent="960" descent="-64" />
<missing-glyph horiz-adv-x="1024" />
<glyph unicode="&#x20;" horiz-adv-x="512" d="" />
<glyph unicode="&#xe900;" glyph-name="loading" d="M133.312 384h-133.312v-320l94.784 87.104c92.864-130.176 245.12-215.104 417.216-215.104 261.12 0 476.544 195.456 508.032 448h-129.344c-30.464-181.632-188.416-320-378.688-320-134.784 0-253.44 69.504-321.92 174.656l158.144 145.344h-214.912zM512 960c-261.12 0-476.544-195.456-508.032-448h129.344c30.464 181.632 188.416 320 378.688 320 138.816 0 260.48-73.664 327.936-184.064l-135.936-135.936h320v320l-91.648-91.648c-92.48 132.8-246.272 219.648-420.352 219.648z" />
<glyph unicode="&#xe901;" glyph-name="bedroom" d="M536.268 394.279h-466.279c-38.704 0-69.989-31.575-69.989-70.257v-133.944c0-39.531 31.978-72.335 71.486-72.335h485.385c39.553 0 70.48 32.827 70.48 72.335v111.821c0 50.927-40.156 92.38-91.084 92.38zM952.156 778.279h-482.19c-39.531 0-70.19-30.19-70.19-69.698v-120.849c4.76 1.542 12.894 2.659 20.715 3.263l19.575 58.771c8.38 25.095 31.62 41.609 58.034 41.609h121.453c19.687 0 38.279-9.207 49.765-25.14 11.486-15.955 14.615-36.447 8.425-55.084l-6.972-20.872c16.358-0.112 32.693-0.201 48.335-0.313l16.693 50.056c8.358 25.073 31.732 41.877 58.145 41.877h121.475c19.665 0 38.257-9.453 49.721-25.385 11.531-15.955 14.659-36.559 8.425-55.218l-5.855-17.922c22.793-6.391 40.536-18.48 56.335-34.682v159.888c-0.089 39.508-32.358 69.698-71.888 69.698zM953.475 541.073l-6.458-19.397c-8.358-25.073-31.754-42.056-58.19-42.056h-121.453c-19.665 0-38.257 9.654-49.743 25.587-8.313 11.531-12.223 25.587-11.441 39.486l-50.637 0.38-4.447-13.676c-8.38-25.073-31.732-42.302-58.145-42.302h-121.453c-19.665 0-38.257 9.899-49.743 25.855-6.257 8.693-10.011 18.972-11.173 29.341-15.397-2.905-30.257-8.849-43.754-17.028l-148.514-90.346h317.944c75.866 0 136.894-59.441 136.894-134.994v-111.821c0-16.894-3.33-32.983-9.944-47.441l325.631 194.883c21.095 12.648 35.106 35.486 35.106 60.067v54.011c0 43.218-30.19 79.486-70.48 89.453zM471.598 523.866h121.453c11.866 0 22.436 7.464 26.19 18.749l26.503 79.441c2.793 8.425 1.385 17.587-3.799 24.76-5.162 7.218-13.497 11.374-22.391 11.374h-121.453c-11.888 0-22.436-7.531-26.19-18.816l-26.503-79.441c-2.816-8.425-1.408-17.564 3.799-24.737 5.184-7.218 13.52-11.33 22.391-11.33zM767.397 514.369h121.453c11.866 0 22.436 7.218 26.19 18.503l26.525 79.128c2.816 8.425 1.385 17.855-3.799 25.050-5.162 7.218-13.497 11.665-22.391 11.665h-121.453c-11.888 0-22.436-7.799-26.19-19.084l-26.525-79.598c-2.793-8.425-1.408-17.341 3.799-24.536 5.162-7.196 13.497-11.128 22.391-11.128z" />
<glyph unicode="&#xe902;" glyph-name="star" d="M979.438 602.76l-281.99 26.665c-17.776 1.616-33.137 12.928-40.401 29.897l-101.002 244.829c-16.16 40.401-73.538 40.401-89.698 0l-100.194-244.829c-6.464-16.968-22.624-28.281-40.401-29.897l-281.998-26.665c-42.017-4.040-58.985-56.561-27.473-84.842l212.508-186.652c13.736-12.12 19.392-29.897 15.352-47.673l-63.833-261.789c-9.696-41.217 34.745-75.146 71.914-53.337l235.133 138.179c15.352 8.888 33.937 8.888 49.289 0l235.141-138.179c37.169-21.808 81.61 11.312 71.905 53.337l-63.025 261.789c-4.040 17.776 1.616 35.553 15.352 47.673l212.508 186.652c30.705 28.281 12.928 80.802-29.089 84.842z" />
<glyph unicode="&#xe903;" glyph-name="for-sale" d="M498.741 379.047h41.739v11.785h-41.739v36.682h45.171v11.944h-59.425v-110.346h14.254zM607.271 327.316c28.148 0 51.24 20.141 51.24 58.114 0 32.756-19.486 55.828-49.614 55.828-29.465 0-51.24-22.91-51.24-57.95-0.001-33.398 20.46-55.992 49.614-55.992zM608.248 429.633c23.731 0 35.209-22.913 35.209-44.859 0-25.034-12.79-45.835-35.37-45.835-22.441 0-35.201 21.116-35.201 44.69-0.003 24.24 11.791 46.004 35.363 46.004zM691.239 376.93h13.43c12.928-0.494 18.819-6.237 22.087-21.452 3.108-13.764 5.581-23.251 7.381-26.366h14.74c-2.3 4.256-4.915 14.9-8.519 30.289-2.633 11.466-7.709 19.315-16.217 22.26v0.497c11.624 3.923 20.79 13.59 20.79 28.16 0 8.523-3.108 16.041-8.671 20.96-6.891 6.211-16.714 8.996-31.926 8.996-9.826 0-20.124-0.819-27.339-2.288v-108.877h14.244l-0.001 47.821zM691.239 427.998c2.294 0.653 7.208 1.323 14.067 1.323 15.073-0.182 25.387-6.401 25.387-20.635 0-12.599-9.666-20.958-24.895-20.958h-14.558v40.27zM474.353 172.583c-9.817 0-19.151 3.289-25.54 7.212l-3.613-11.949c5.904-3.939 17.53-7.043 28.17-7.043 26.026 0 38.628 14.728 38.628 31.766 0 16.203-9.494 25.214-28.149 32.408-15.229 5.902-21.948 10.969-21.948 21.288 0 7.529 5.745 16.541 20.797 16.541 9.989 0 17.354-3.271 20.96-5.247l3.922 11.619c-4.913 2.8-13.096 5.41-24.386 5.41-21.451 0-35.693-12.776-35.693-29.967 0-15.55 11.134-24.873 29.142-31.259 14.892-5.743 20.795-11.624 20.795-21.941 0-11.135-8.519-18.839-23.086-18.839zM560.621 272.785l-37.495-110.339h14.734l11.453 34.698h39.123l11.802-34.698h15.228l-37.669 110.339h-17.176zM552.267 208.275l10.797 31.927c2.131 6.718 3.936 13.431 5.582 19.991h0.318c1.627-6.398 3.282-12.937 5.724-20.149l10.81-31.768h-33.232zM645.897 272.785h-14.241v-110.339h61.382v11.944h-47.141zM768.511 260.841v11.944h-59.602v-110.339h62.055v11.944h-47.81v39.786h42.896v11.788h-42.896v34.876zM963.068 623.498l60.929 78.043-60.929 78.043h-724.884v119.486l-78.045 60.929-78.042-60.929v-119.486h-82.096v-156.086h82.096v-687.499h156.086v687.499h167.063v-89.999h-92.376v-463.844h585.7v463.844h-80.583v89.998h145.081zM853.365 114.861h-489.393v369.503h489.393v-369.503zM759.024 533.5h-294.816v89.999h294.816v-89.999z" />
<glyph unicode="&#xe904;" glyph-name="home" d="M1012.156 469.899l-127.884 127.911c-0.041 0-0.041 0.041-0.081 0.041l-330.25 330.25c0 0-0.041 0.027-0.041 0.041l-13.343 13.343c-15.761 15.788-41.367 15.788-57.142 0l-13.343-13.343c0-0.014-0.041-0.014-0.041-0.014l-330.236-330.29c-0.041 0-0.041-0.041-0.081-0.041l-127.884-127.911c-15.774-15.788-15.774-41.367 0-57.142 7.874-7.887 18.232-11.844 28.578-11.844s20.704 3.944 28.578 11.844l58.938 58.938v-431.298c0-53.873 43.825-97.699 97.672-97.699h572.795c53.846 0 97.672 43.825 97.672 97.699v431.311l58.938-58.938c7.874-7.887 18.232-11.844 28.578-11.844s20.69 3.944 28.564 11.844c15.801 15.774 15.801 41.354 0.014 57.142zM798.391 23.529h-572.795c-9.278 0-16.855 7.577-16.855 16.882v512.101l303.252 303.252 303.239-303.252v-512.115c0.014-9.292-7.563-16.868-16.841-16.868z" />
<glyph unicode="&#xe905;" glyph-name="home-sold" d="M1015.034 429.532l-205.816 205.831v135.711c0 16.904-13.702 30.621-30.607 30.621-16.934 0-30.651-13.717-30.651-30.621v-74.498l-145.184 145.184c-11.989 11.96-31.336 11.96-43.281 0l-215.541-215.601c-11.945-11.975-11.945-31.336 0-43.296 11.96-11.945 31.336-11.945 43.311 0l193.931 193.931 390.572-390.542c5.957-5.987 13.851-8.981 21.641-8.981 7.819 0 15.653 2.979 21.626 8.981 11.945 11.96 11.945 31.366 0 43.281zM927.444 394.398l-324.608 324.623c-5.764 5.749-13.523 8.981-21.641 8.981s-15.892-3.232-21.626-8.981l-165.99-165.975c0.491 0 0.983 0.119 1.504 0.119 9.309 0 18.364-2.666 26.198-7.715 12.421-7.968 20.419-20.955 21.998-35.641l0.074-0.7 2.383 0.060c14.134 0 27.509-6.106 36.728-16.74 9.636-11.155 13.687-25.87 11.051-40.377l-0.134-0.715 0.7-0.164c14.283-3.634 26.004-13.404 32.126-26.838 6.106-13.404 5.853-28.7-0.789-41.881l-0.313-0.64 0.611-0.343c8.996-5.317 15.817-13.27 19.764-22.638 8.981 9.979 21.462 16.711 35.685 18.066 27.97-2.666 49.611-26.258 49.611-54.481v-116.349c0-18.647 7.030-36.445 19.704-50.236 13.97-15.102 33.764-23.77 54.302-23.77h158.424c40.809 0 74.036 33.198 74.036 74.007v158.424c-0.015 4.647-0.477 9.368-1.4 14.045-1.132 6.032-4.066 11.528-8.4 15.862zM520.326 345.323c-1.162 7.998-5.898 15.102-12.853 19.228l-18.006 10.649 9.398 18.751c3.604 7.223 3.783 15.743 0.372 23.13-3.381 7.372-9.889 12.809-17.753 14.819l-20.27 5.183 3.738 20.598c1.445 7.968-0.804 16.189-6.106 22.311s-13.106 9.502-21.223 9.234l-20.926-0.774-2.204 20.821c-0.879 8.057-5.332 15.296-12.168 19.675-6.806 4.409-15.236 5.451-22.936 2.874l-19.868-6.613-7.998 19.347c-3.098 7.506-9.428 13.181-17.202 15.475-7.775 2.264-16.175 0.909-22.832-3.723l-17.187-11.96-13.136 16.323c-5.109 6.315-12.764 9.994-20.851 9.994-8.132 0-15.802-3.679-20.881-9.994l-13.121-16.309-17.187 11.96c-6.657 4.617-15.058 5.972-22.847 3.694-7.76-2.279-14.104-7.953-17.202-15.46l-7.983-19.347-19.868 6.598c-7.7 2.577-16.145 1.534-22.951-2.874-6.836-4.379-11.289-11.602-12.153-19.675l-2.234-20.806-20.911 0.76c-8.043 0.223-15.921-3.098-21.223-9.234-5.302-6.121-7.566-14.313-6.121-22.311l3.738-20.598-20.285-5.168c-7.849-2.026-14.387-7.447-17.738-14.834-3.396-7.372-3.232-15.862 0.402-23.13l9.398-18.721-18.021-10.679c-6.97-4.126-11.706-11.2-12.853-19.228-1.162-8.028 1.385-16.175 6.926-22.072l14.268-15.266-14.268-15.326c-5.54-5.898-8.087-14-6.926-22.028 1.147-8.028 5.898-15.147 12.853-19.228l18.021-10.679-9.398-18.751c-3.634-7.223-3.783-15.802-0.402-23.13 3.366-7.387 9.875-12.823 17.738-14.834l20.285-5.213-3.738-20.598c-1.445-7.968 0.819-16.175 6.121-22.311s13.121-9.517 21.223-9.219l20.926 0.789 2.234-20.792c0.879-8.057 5.317-15.281 12.138-19.689 6.836-4.394 15.266-5.392 22.966-2.86l19.853 6.613 7.983-19.347c3.098-7.506 9.443-13.226 17.202-15.445 7.789-2.309 16.189-0.938 22.847 3.694l17.187 11.945 13.136-16.309c5.079-6.315 12.734-9.979 20.866-9.979 8.087 0 15.787 3.664 20.851 9.979l13.136 16.338 17.187-11.975c6.657-4.647 15.043-5.972 22.832-3.694 7.775 2.219 14.104 7.938 17.202 15.445l7.998 19.347 19.868-6.613c7.7-2.562 16.13-1.534 22.936 2.889 6.836 4.379 11.304 11.602 12.168 19.689l2.204 20.792 20.926-0.804c8.013-0.283 15.906 3.113 21.223 9.249 5.302 6.106 7.566 14.313 6.106 22.311l-3.738 20.598 20.27 5.198c7.864 2.011 14.402 7.447 17.753 14.834 3.411 7.328 3.232 15.832-0.372 23.13l-9.398 18.736 18.006 10.679c6.985 4.096 11.706 11.23 12.853 19.258 1.147 7.998-1.4 16.115-6.926 22.028l-14.268 15.326 14.268 15.266c5.526 5.868 8.072 14.015 6.926 22.043zM102.2 349.344c0 12.079 8.847 20.211 20.881 20.211 17.649 0 19.794-22.623 44.1-22.623 10.143 0 19.153 3.411 19.153 12.913 0 6.226-4.513 8.817-13.538 11.423l-32.915 9.457c-24.768 7.119-38.307 21.73-38.307 43.46 0 25.811 17.202 50.162 60.245 50.162 28.641 0 65.622-6.911 65.622-32.93 0-12.049-9.234-19.57-21.506-19.57-16.562 0-16.785 18.93-41.3 18.93-8.385 0-16.145-3.202-16.145-10.292 0-6.896 6.017-9.919 16.562-12.704l25.617-6.896c26.019-7.119 43.877-19.153 43.877-46.051 0-36.817-31.634-52.709-64.326-52.709-52.083-0.015-68.019 23.189-68.019 37.219zM217.969 141.533h-73.158c-19.153 0-28.194 8.832-28.194 29.475v101.545c0 16.532 9.457 26.66 24.753 26.66 15.266 0 24.738-10.128 24.738-26.66v-91.015h51.845c12.689 0 21.298-7.298 21.298-20.017-0.015-12.675-8.594-19.987-21.283-19.987zM255.218 393.236c0 54.213 38.962 81.111 80.039 81.111 41.107 0 80.039-26.913 80.039-81.111 0-56.164-38.485-81.126-80.039-81.126-41.524 0-80.039 24.932-80.039 81.126zM344.729 141.533h-41.941c-19.153 0-28.209 8.832-28.209 29.475v95.945c0 20.672 9.040 29.475 28.209 29.475h41.941c51.413 0 74.23-34.434 74.23-77.462s-22.817-77.432-74.23-77.432zM333.767 257.733h-10.977v-77.462h10.977c28.611 0 35.7 14.194 35.7 38.753 0 24.515-7.104 38.709-35.7 38.709zM365.819 393.236c0 25.141-9.889 42.387-30.577 42.387-20.658 0-30.532-17.217-30.532-42.387 0-25.185 9.875-42.417 30.532-42.417 20.672 0 30.577 17.202 30.577 42.417z" />
<glyph unicode="&#xe906;" glyph-name="price-tag" d="M987.709 939.233c-5.571 16.148-23.020 24.658-38.953 19.036-15.944-5.622-24.361-23.265-18.811-39.414 47.094-136.714-46.387-238.766-117.606-293.448l-28.846 41.697c-9.646 13.937-31.314 25.549-48.118 25.805l-161.556-0.737c-16.794 0.266-41.83-7.526-55.603-17.295l-475.996-337.326c-23.050-16.343-28.662-48.497-12.524-71.844l216.34-312.709c16.148-23.347 42.097-20.552 65.147-4.219l475.986 337.316c13.773 9.779 29.542 30.925 35.082 47.002l50.586 161.085c5.509 16.087 2.15 40.643-7.506 54.589l-17.582 25.405c95.754 74.004 195.103 204.933 139.96 365.056zM766.249 460.206c-36.895-26.132-87.747-17.050-113.572 20.275-25.836 37.356-16.876 88.801 20.040 114.964 29.276 20.756 67.308 19.241 94.679-0.901-13.783-8.397-23.235-13.23-25.037-14.090-15.258-7.291-21.78-25.723-14.602-41.165 5.222-11.213 16.22-17.777 27.699-17.777 4.362 0 8.796 0.963 13.015 2.97 9.81 4.68 20.367 10.332 31.375 16.916 4.966-30.372-7.004-62.351-33.597-81.193z" />
<glyph unicode="&#xe907;" glyph-name="search" d="M683.841 842.832c-156.213 156.213-410.46 156.213-566.673 0-156.179-156.246-156.179-410.46 0-566.707 139.111-139.078 355.77-153.978 511.881-45.377 3.285-15.543 10.802-30.376 22.892-42.465l227.495-227.495c33.152-33.085 86.725-33.085 119.708 0 33.119 33.119 33.119 86.691 0 119.708l-227.495 227.563c-12.022 11.988-26.888 19.539-42.431 22.824 108.668 156.145 93.768 372.77-45.377 511.949zM612.016 347.95c-116.626-116.626-306.431-116.626-423.024 0-116.558 116.626-116.558 306.397 0 423.024 116.592 116.592 306.397 116.592 423.024 0 116.626-116.626 116.626-306.397 0-423.024z" />
<glyph unicode="&#xe908;" glyph-name="guide" d="M0 955.709v-1015.419h1024v1015.419h-1024zM956.271 887.979c0-60.563 0-819.395 0-880.007-60.66 0-827.928 0-888.588 0 0 60.61 0 819.445 0 880.007 60.657 0 827.928 0 888.588 0zM512 688.055v-67.048h350.89v67.048h-350.89zM412.185 386.802h450.755v66.998h-450.755v-66.998zM151.844 152.55h711.096v66.998h-711.096v-66.998zM442.709 670.208c0 85.822-69.632 155.454-155.307 155.454-85.919 0-155.357-69.535-155.404-155.454 0-77.092 56.319-140.582 129.803-152.82l0.732-36.182-22.285-7.607 0.050-177.494c0 0 21.358-21.796 49.298-19.943 27.94 1.756 44.714 19.943 44.714 19.943l0.050 177.592-20.675 4.973-0.683 38.717c73.534 12.338 129.706 75.778 129.706 152.823zM287.305 550.399c-66.024 0-119.71 53.638-119.71 119.76s53.638 119.613 119.807 119.71c66.024 0 119.663-53.589 119.71-119.71-0.047-66.121-53.589-119.66-119.807-119.76z" />
<glyph unicode="&#xe909;" glyph-name="move-truck" d="M640.223 356.153v366.318c0 10.495-8.519 19.014-19.014 19.014h-602.195c-10.495 0-19.014-8.519-19.014-19.014v-366.351c0-10.495 8.519-19.046 19.014-19.046h602.195c10.495 0 19.014 8.519 19.014 19.079zM496.015 589.892l29.703 51.503c2.98 5.118 10.333 5.118 13.248 0l29.768-51.503c2.98-5.118-0.68-11.531-6.64-11.531h-12.471v-96.042c0-4.243-3.466-7.677-7.644-7.677h-19.241c-4.243 0-7.677 3.434-7.677 7.677v96.042h-12.471c-5.831 0-9.523 6.446-6.576 11.531zM380.927 589.892l29.768 51.503c2.915 5.118 10.301 5.118 13.281 0l29.736-51.503c2.98-5.118-0.745-11.531-6.673-11.531h-12.471v-96.042c0-4.243-3.401-7.677-7.677-7.677h-19.208c-4.211 0-7.644 3.434-7.644 7.677v96.042h-12.503c-5.895 0-9.556 6.446-6.608 11.531zM252.688 445.911c2.008-0.421 3.401-2.138 3.401-4.179v-9.264c0-2.656-2.138-4.762-4.794-4.762h-141.649c-2.332 0-4.276 1.911-4.276 4.243v9.782c0 2.008 1.425 3.79 3.401 4.179l50.045 10.139v41.883c-40.392 9.847-70.452 46.029-70.452 89.434 0 23.387 8.973 44.506 23.29 60.735h138.118c14.317-16.261 23.322-37.38 23.322-60.735 0-43.405-30.092-79.586-70.452-89.434v-41.883l50.045-10.139zM583.375 431.302c0-2.073-1.717-3.822-3.822-3.822h-211.712c-2.105 0-3.855 1.749-3.855 3.822v11.499c0 2.073 1.717 3.79 3.855 3.79h211.712c2.105 0 3.822-1.684 3.822-3.79v-11.499zM1011.853 306.173h-29.671v165.554c0 19.435-5.798 38.449-16.714 54.548l-74.177 109.873c-18.107 26.853-48.361 42.919-80.753 42.919h-115.055c-13.443 0-24.391-10.884-24.391-24.359v-329.489c0-10.495-8.551-19.046-19.014-19.046h-169.344c17.848-15.418 30.157-36.959 33.72-61.35h198.659c7.029 48.393 48.652 85.709 99.054 85.709 50.337 0 91.928-37.283 98.989-85.709h98.698c6.705 0 12.147 5.474 12.147 12.179v36.959c0 6.705-5.442 12.212-12.147 12.212zM890.384 504.281h-151.82c-6.737 0-12.147 5.442-12.147 12.179v84.283c0 6.737 5.409 12.179 12.147 12.179h92.446c3.984 0 7.709-1.911 10.009-5.15l59.309-84.283c5.733-8.098 0-19.208-9.944-19.208zM814.166 306.173c-41.883 0-75.797-33.979-75.797-75.894 0-41.85 33.914-75.797 75.797-75.797s75.829 33.947 75.829 75.797c-0.032 41.915-33.979 75.894-75.829 75.894zM814.166 192.413c-20.925 0-37.898 16.941-37.898 37.866 0 20.957 16.941 37.931 37.898 37.931s37.931-16.941 37.931-37.931c-0.032-20.893-17.070-37.866-37.931-37.866zM182.236 306.173c-6.737 0-12.179-5.507-12.179-12.212v-36.991c0-6.737 5.474-12.179 12.179-12.179h136.175c3.563 24.391 15.872 45.964 33.752 61.382h-169.927zM417.432 306.173c-41.85 0-75.797-33.979-75.797-75.894 0-41.85 33.947-75.797 75.797-75.797 41.883 0 75.829 33.947 75.829 75.797 0 41.915-33.947 75.894-75.829 75.894zM417.432 192.413c-20.925 0-37.898 16.941-37.898 37.866 0 20.957 16.973 37.931 37.898 37.931s37.898-16.941 37.898-37.931c0-20.893-16.973-37.866-37.898-37.866z" />
<glyph unicode="&#xe90a;" glyph-name="group" d="M617.94 730.971c47.347-29.686 80.548-79.921 86.592-138.233 19.309-9.022 40.74-14.211 63.462-14.211 82.95 0 150.182 67.232 150.182 150.169 0 82.95-67.232 150.182-150.182 150.182-82.158-0.026-148.801-66.056-150.054-147.907zM519.553 423.477c82.95 0 150.182 67.244 150.182 150.182s-67.244 150.169-150.182 150.169c-82.937 0-150.207-67.244-150.207-150.182s67.27-150.169 150.207-150.169zM583.257 413.24h-127.435c-106.029 0-192.289-86.273-192.289-192.302v-155.843l0.396-2.441 10.735-3.361c101.186-31.616 189.094-42.159 261.45-42.159 141.326 0 223.24 40.293 228.288 42.862l10.032 5.073h1.073v155.868c0.038 106.029-86.221 192.302-192.251 192.302zM831.724 568.278h-126.451c-1.367-50.593-22.964-96.151-57.123-128.917 94.247-28.025 163.204-115.422 163.204-218.653v-48.024c124.853 4.575 196.8 39.961 201.541 42.338l10.032 5.086h1.073v155.894c0 106.017-86.26 192.276-192.276 192.276zM256.032 578.502c29.379 0 56.714 8.575 79.87 23.182 7.361 48.012 33.098 89.966 69.864 118.54 0.153 2.811 0.422 5.597 0.422 8.434 0 82.95-67.244 150.182-150.156 150.182-82.963 0-150.182-67.232-150.182-150.182 0-82.912 67.219-150.156 150.182-150.156zM390.904 439.361c-33.993 32.6-55.513 77.915-57.085 128.201-4.69 0.345-9.329 0.716-14.108 0.716h-127.422c-106.029 0-192.289-86.26-192.289-192.276v-155.868l0.396-2.402 10.735-3.386c81.174-25.341 153.619-37.021 216.544-40.702v47.066c0.026 103.231 68.957 190.602 163.229 218.653z" />
<glyph unicode="&#xe90b;" glyph-name="pause" d="M666.499 960h194.338c12.536 0 23.103-10.567 23.103-23.234v-977.466c0-12.798-10.501-23.3-23.103-23.3h-194.338c-12.536 0-23.3 10.501-23.3 23.3v977.466c0 12.667 10.764 23.234 23.3 23.234zM163.294 960h194.469c12.536 0 22.971-10.567 22.971-23.234v-977.466c0-12.798-10.37-23.3-22.971-23.3h-194.469c-12.864 0-23.234 10.567-23.234 23.365v977.401c0 12.667 10.37 23.234 23.234 23.234z" />
<glyph unicode="&#xe90c;" glyph-name="size" d="M306.456 469.465c4.479-4.479 10.347-6.717 16.215-6.717s11.739 2.238 16.215 6.717c8.955 8.955 8.955 23.475 0 32.432l-42.678 42.678 61.14 61.14c8.955 8.955 8.955 23.475 0 32.43s-23.475 8.955-32.43 0l-61.138-61.14-53.704 53.704 61.14 61.14c8.955 8.955 8.955 23.475 0 32.432-8.955 8.955-23.475 8.955-32.432 0l-61.14-61.14-122.226 122.223 119.88 119.072 283.063-283.063c8.955-8.955 23.475-8.955 32.432 0 8.955 8.955 8.955 23.475 0 32.43l-299.223 299.223c-8.934 8.932-23.413 8.957-32.377 0.055l-152.422-151.39c-4.325-4.297-6.763-10.136-6.772-16.231s2.406-11.943 6.717-16.254l299.739-299.741zM1017.286 127.312l-299.482 299.482c-8.955 8.955-23.475 8.955-32.432 0-8.955-8.955-8.955-23.475 0-32.432l283.267-283.265-119.476-119.476-122.278 122.281 61.14 61.14c8.955 8.955 8.955 23.475 0 32.43s-23.475 8.955-32.43 0l-61.138-61.14-53.704 53.704 61.14 61.14c8.955 8.955 8.955 23.475 0 32.432s-23.475 8.955-32.432 0l-61.14-61.14-42.421 42.421c-8.955 8.953-23.475 8.953-32.432 0-8.955-8.955-8.955-23.475 0-32.432l299.482-299.482c4.479-4.479 10.347-6.717 16.215-6.717s11.739 2.238 16.215 6.717l151.906 151.906c8.953 8.957 8.953 23.477 0 32.432zM145.212 817.851c-8.664-8.661-13.433-20.18-13.433-32.432 0-12.25 4.772-23.769 13.433-32.43 8.661-8.664 20.18-13.433 32.43-13.433s23.769 4.772 32.432 13.433c17.88 17.882 17.88 46.978 0 64.86-8.664 8.661-20.18 13.431-32.432 13.431s-23.769-4.765-32.43-13.429zM881.595 81.469c8.661 8.664 13.433 20.18 13.433 32.43s-4.772 23.769-13.433 32.432c-8.664 8.661-20.18 13.431-32.432 13.431-12.25 0-23.766-4.77-32.43-13.431-8.664-8.664-13.433-20.18-13.433-32.432 0-12.25 4.77-23.766 13.431-32.43 8.664-8.664 20.18-13.433 32.43-13.433 12.255 0 23.771 4.77 32.434 13.433zM922.835 696.683c0.005 0.005 0.007 0.007 0.011 0.011s0.007 0.007 0.011 0.011l65.688 65.688c44.705 44.705 44.705 117.447 0 162.152-21.629 21.627-50.422 33.537-81.075 33.537-30.655 0-59.448-11.911-81.077-33.54l-65.676-65.676c-0.007-0.007-0.016-0.014-0.023-0.021s-0.014-0.016-0.021-0.023l-81.045-81.045c-0.002-0.002-0.007-0.005-0.009-0.009s-0.005-0.007-0.009-0.009l-525.602-525.6c-0.044-0.044-0.078-0.096-0.122-0.14-0.702-0.715-1.353-1.475-1.956-2.273-0.131-0.172-0.248-0.351-0.374-0.527-0.525-0.741-1.011-1.507-1.447-2.302-0.048-0.089-0.115-0.167-0.163-0.257l-85.413-161.631c-0.044-0.080-0.087-0.161-0.128-0.243l-59.829-113.223c-4.701-8.895-3.054-19.815 4.059-26.931 4.41-4.407 10.278-6.717 16.222-6.717 3.648 0 7.324 0.869 10.707 2.658l113.234 59.838c0.073 0.037 0.144 0.076 0.218 0.115l161.643 85.42c0.044 0.023 0.083 0.055 0.126 0.078 0.881 0.475 1.727 1.011 2.539 1.594 0.142 0.103 0.284 0.204 0.424 0.31 0.796 0.601 1.552 1.25 2.268 1.951 0.046 0.046 0.101 0.080 0.147 0.126l606.672 606.677zM142.49 48.954l-29.536 29.536 48.283 91.364 9.913-45.219c0.025-0.117 0.073-0.225 0.101-0.342 0.2-0.853 0.449-1.692 0.748-2.522 0.057-0.158 0.105-0.316 0.165-0.472 0.353-0.92 0.766-1.818 1.243-2.697 0.073-0.135 0.158-0.261 0.234-0.394 0.408-0.718 0.862-1.415 1.355-2.094 0.142-0.195 0.28-0.39 0.427-0.58 0.589-0.761 1.215-1.504 1.912-2.204 0.699-0.699 1.442-1.325 2.206-1.915 0.188-0.144 0.381-0.282 0.573-0.422 0.683-0.495 1.385-0.952 2.107-1.364 0.128-0.073 0.25-0.154 0.381-0.225 0.881-0.479 1.784-0.892 2.706-1.247 0.151-0.057 0.305-0.105 0.456-0.161 0.835-0.3 1.683-0.553 2.543-0.754 0.112-0.028 0.218-0.073 0.333-0.099l45.217-9.911-91.366-48.278zM239.404 142.974l84.297 84.299c8.955 8.955 8.955 23.475 0 32.43s-23.475 8.955-32.43 0l-84.297-84.297-11.663 53.197 500.524 500.522 32.43-32.43-381.688-381.685c-8.955-8.955-8.955-23.475 0-32.432 4.479-4.479 10.347-6.717 16.215-6.717s11.739 2.24 16.215 6.717l381.685 381.685 32.43-32.43-500.522-500.522-53.197 11.663zM776.91 810.197l97.29-97.29-48.645-48.645-97.29 97.29 48.645 48.645zM858.824 892.111c12.966 12.968 30.242 20.109 48.645 20.109s35.679-7.141 48.643-20.106c26.823-26.823 26.823-70.467 0-97.29l-49.482-49.482-97.29 97.29 49.484 49.48zM90.529 36.053l9.526-9.526-20.2-10.675 10.675 20.2z" />
<glyph unicode="&#xe90d;" glyph-name="play" d="M109.714 960v-1024l804.571 512z" />
<glyph unicode="&#xe90e;" glyph-name="home-price" d="M665.79 905.676v-53.454l170.25-170.25v223.705c0 29.987-24.336 54.324-54.324 54.324h-61.603c-29.987 0-54.324-24.337-54.324-54.324zM67.253 449.793h120.598v-459.469c0-29.987 24.337-54.324 54.324-54.324h539.652c29.987 0 54.324 24.337 54.324 54.324v459.469h120.598c24.227 0 36.287 29.226 19.229 46.392l-425.57 425.462c-10.649 10.647-24.555 15.862-38.462 15.862s-27.814-5.324-38.461-15.862l-425.462-425.571c-17.058-17.058-4.998-46.284 19.231-46.284zM511.946 494.664c129.399 0 234.352-104.953 234.352-234.352s-104.953-234.243-234.352-234.243c-129.399 0-234.352 104.953-234.352 234.351 0 129.4 104.953 234.244 234.352 234.244zM427.852 233.693h57.693v-67.47h-49.869c-14.993 0-27.162-12.168-27.162-27.162s12.168-27.162 27.162-27.162h49.869v-34.658c0-14.993 12.168-27.162 27.162-27.162s27.162 12.168 27.162 27.162v34.658h55.084c14.993 0 27.162 12.167 27.162 27.162v121.794c0 14.993-12.168 27.162-27.162 27.162h-55.084v67.47h46.175c14.993 0 27.162 12.168 27.162 27.162s-12.168 27.162-27.162 27.162h-46.175v34.658c0 14.993-12.168 27.162-27.162 27.162s-27.162-12.168-27.162-27.162v-34.658h-57.693c-14.993 0-27.162-12.167-27.162-27.162v-121.794c0-14.993 12.17-27.162 27.162-27.162zM539.868 233.693h27.922v-67.47h-27.922v67.47zM455.013 355.487h30.531v-67.47h-30.531v67.47z" />
<glyph unicode="&#xe90f;" glyph-name="stat" d="M1001.449 76.269h-136.393v574.352l53.293 52.746 0.002-81.993c0-12.455 10.096-22.551 22.551-22.551s22.551 10.096 22.551 22.551l-0.002 138.766c0 12.455-10.096 22.551-22.551 22.551h-138.76c-12.455 0-22.551-10.096-22.551-22.551s10.096-22.551 22.551-22.551h86.673l-336.308-332.853-159.479 160.628c-4.233 4.265-9.993 6.664-16.003 6.664-0.002 0-0.004 0-0.006 0-6.011-0.002-11.772-2.403-16.005-6.673l-304.015-306.539c-8.769-8.842-8.711-23.122 0.131-31.891 4.399-4.362 10.139-6.54 15.88-6.54 5.801 0 11.602 2.225 16.011 6.671l27.033 27.259v-178.048h-70.952v766.012c0 12.455-10.096 22.551-22.551 22.551s-22.551-10.096-22.551-22.551v-788.561c0-12.455 10.096-22.551 22.551-22.551h978.898c12.455 0 22.551 10.096 22.551 22.551s-10.096 22.551-22.551 22.551zM819.954 76.269h-245.035v287.194l245.035 242.518v-529.712zM399.574 494.758l130.242-131.178v-287.308h-130.242v418.486zM161.156 299.795l193.316 194.922v-418.446h-193.316v223.523z" />
<glyph unicode="&#xe910;" glyph-name="home-search" d="M1014.224 10.274c1.433 19.662-5.035 39.875-20.103 54.943l-165.601 165.601c-14.627 14.664-34.179 21.242-53.326 20.287l-64.756 64.682c123.19 156.119 113.047 383.757-31.018 527.821-155.201 155.274-407.829 155.237-563.029 0-155.201-155.201-155.237-407.829 0-563.103 144.028-143.991 371.739-154.135 527.785-30.945l64.682-64.756c-0.919-19.147 5.586-38.699 20.323-53.326l165.601-165.638c15.068-15.031 35.244-21.536 54.906-20.066 18.449-13.855 44.212-13.194 60.934 3.565 16.832 16.685 17.457 42.558 3.602 60.934zM613.268 346.769c-118.707-118.67-311.834-118.67-430.578 0-118.707 118.707-118.707 311.908 0 430.614s311.834 118.707 430.578 0c118.707-118.707 118.67-311.908 0-430.614zM289.673 579.184v-165.087h208.894v165.087l-104.447 87.541-104.447-87.541zM383.169 464.703h-42.889v42.889h42.889v-42.889zM383.169 529.459h-42.889v42.889h42.889v-42.889zM405.035 572.311h42.889v-42.889h-42.889v42.889zM405.035 507.592h42.889v-42.889h-42.889v42.889zM408.159 749.158c-8.159 6.836-20.029 6.836-28.188 0l-156.56-131.349c-9.261-7.755-10.511-21.573-2.72-30.834 4.337-5.182 10.548-7.828 16.795-7.828 4.961 0 9.96 1.654 14.039 5.108l142.595 119.515 142.558-119.515c9.298-7.791 23.117-6.542 30.871 2.72s6.542 23.080-2.72 30.834l-156.671 131.349z" />
<glyph unicode="&#xe911;" glyph-name="bathroom" d="M884.444 406.923h-744.893c-26.423 0-47.844-21.421-47.844-47.844 0-26.412 21.421-47.812 47.844-47.812h744.893c26.423 0 47.844 21.4 47.844 47.812 0.004 26.423-21.421 47.844-47.844 47.844zM213.999 151.235c-19.823 0-35.865-16.057-35.865-35.854v-11.968c0-19.823 16.043-35.876 35.865-35.876 19.844 0 35.89 16.057 35.89 35.876v11.968c0 19.797-16.050 35.854-35.89 35.854zM213.999 282.792c-19.823 0-35.865-16.079-35.865-35.88v-11.954c0-19.833 16.043-35.89 35.865-35.89 19.844 0 35.89 16.057 35.89 35.89v11.954c0 19.797-16.050 35.88-35.89 35.88zM213.999 19.688c-19.823 0-35.865-16.054-35.865-35.854v-11.957c0-19.833 16.043-35.876 35.865-35.876 19.844 0 35.89 16.043 35.89 35.876v11.957c0 19.801-16.050 35.854-35.89 35.854zM362.997 151.235c-19.823 0-35.89-16.057-35.89-35.854v-11.968c0-19.823 16.068-35.876 35.89-35.876s35.89 16.057 35.89 35.876v11.968c0 19.797-16.068 35.854-35.89 35.854zM362.997 19.688c-19.823 0-35.89-16.054-35.89-35.854v-11.957c0-19.833 16.068-35.876 35.89-35.876s35.89 16.043 35.89 35.876v11.957c0 19.801-16.068 35.854-35.89 35.854zM362.997 282.792c-19.823 0-35.89-16.079-35.89-35.88v-11.954c0-19.833 16.068-35.89 35.89-35.89s35.89 16.057 35.89 35.89v11.954c0 19.797-16.068 35.88-35.89 35.88zM511.998 19.688c-19.823 0-35.865-16.054-35.865-35.854v-11.957c0-19.833 16.043-35.876 35.865-35.876s35.865 16.043 35.865 35.876v11.957c0 19.801-16.043 35.854-35.865 35.854zM511.998 151.235c-19.823 0-35.865-16.057-35.865-35.854v-11.968c0-19.823 16.043-35.876 35.865-35.876s35.865 16.057 35.865 35.876v11.968c0 19.797-16.043 35.854-35.865 35.854zM511.998 282.792c-19.823 0-35.865-16.079-35.865-35.88v-11.954c0-19.833 16.043-35.89 35.865-35.89s35.865 16.057 35.865 35.89v11.954c0 19.797-16.043 35.88-35.865 35.88zM661 282.792c-19.823 0-35.89-16.079-35.89-35.88v-11.954c0-19.833 16.068-35.89 35.89-35.89s35.89 16.057 35.89 35.89v11.954c-0.004 19.797-16.068 35.88-35.89 35.88zM661 19.688c-19.823 0-35.89-16.054-35.89-35.854v-11.957c0-19.833 16.068-35.876 35.89-35.876s35.89 16.043 35.89 35.876v11.957c-0.004 19.801-16.068 35.854-35.89 35.854zM661 151.235c-19.823 0-35.89-16.057-35.89-35.854v-11.968c0-19.823 16.068-35.876 35.89-35.876s35.89 16.057 35.89 35.876v11.968c-0.004 19.797-16.068 35.854-35.89 35.854zM809.998 151.235c-19.844 0-35.89-16.057-35.89-35.854v-11.968c0-19.823 16.046-35.876 35.89-35.876 19.823 0 35.865 16.057 35.865 35.876v11.968c0.004 19.797-16.039 35.854-35.865 35.854zM809.998 19.688c-19.844 0-35.89-16.054-35.89-35.854v-11.957c0-19.833 16.046-35.876 35.89-35.876 19.823 0 35.865 16.043 35.865 35.876v11.957c0.004 19.801-16.039 35.854-35.865 35.854zM809.998 282.792c-19.844 0-35.89-16.079-35.89-35.88v-11.954c0-19.833 16.046-35.89 35.89-35.89 19.823 0 35.865 16.057 35.865 35.89v11.954c0.004 19.797-16.039 35.88-35.865 35.88zM213.039 447.344h597.914c13.201 0 23.933 10.7 23.933 23.922 0 165.091-124.666 301.434-284.756 320.391 10.535 54.923 58.799 96.576 116.758 96.576h91c19.801 0 35.89 16.079 35.89 35.876 0 19.833-16.089 35.89-35.89 35.89h-91c-97.424 0-177.825-73.412-189.247-167.768-161.954-17.221-288.535-154.567-288.535-320.969 0-13.219 10.736-23.919 23.933-23.919z" />
<glyph unicode="&#xe912;" glyph-name="tools" d="M28.098 99.741c-37.463-37.463-37.463-98.132 0-135.595 18.731-18.731 43.28-28.065 67.83-28.065s49.099 9.333 67.83 28.065l314.854 314.92-135.66 135.532-314.854-314.857zM815.013 683.294l137.13 70.9 71.792 138.792-66.934 66.934-138.728-71.857-71.027-137.002-166.793-166.984 67.639-67.767zM845.058 319.341l-12.915 1.279c-23.398 0-45.582-4.795-66.295-12.467l-393.618 393.681c7.672 20.712 12.467 42.897 12.467 66.295l-1.279 12.915c-6.776 99.796-88.99 178.877-190.511 178.877-29.537 0-57.218-7.224-82.215-19.179l127.412-127.412c6.713-6.713 11.316-14.639 14.385-23.015 8.374-22.63 3.836-49.099-14.385-67.382-12.467-12.467-28.832-18.731-45.198-18.731-7.543 0-15.024 1.661-22.185 4.347-8.374 3.197-16.302 7.672-23.015 14.448l-127.41 127.349c-11.956-24.996-19.179-52.678-19.179-82.215 0-101.52 79.081-183.735 178.877-190.511l12.915-1.279c23.398 0 45.582 4.795 66.295 12.401l393.553-393.618c-7.543-20.712-12.338-42.897-12.338-66.295l1.342-12.915c6.65-99.859 88.927-178.877 190.447-178.877 29.537 0 57.281 7.096 82.215 19.179l-127.412 127.412c-6.65 6.65-11.316 14.639-14.513 22.95-8.374 22.63-3.836 49.162 14.513 67.445 12.338 12.467 28.832 18.731 45.198 18.731 7.543 0 14.959-1.598 22.248-4.347 8.374-3.133 16.366-7.609 22.95-14.385l127.412-127.412c12.019 25.061 19.179 52.678 19.179 82.215-0.063 101.524-79.144 183.739-178.94 190.515z" />
<glyph unicode="&#xe913;" glyph-name="quote" d="M426.214 959.966c-93.806-4.166-177.547-41.575-242.166-108.182-171.303-176.598-168.008-509.487-167.070-546.303l0.011-347.142c0-12.332 10.008-22.34 22.34-22.34h342.819c12.332 0 22.34 10.008 22.34 22.34v342.841c0 12.332-10.008 22.34-22.34 22.34h-175.202c0.034 28.618 3.496 282.702 113.778 396.033 29.846 30.684 65.188 47.070 108.059 50.098 11.706 0.827 20.765 10.556 20.765 22.284v145.702c0 6.099-2.491 11.93-6.892 16.141-4.412 4.222-10.265 6.568-16.442 6.188zM1000.308 953.789c-4.412 4.211-10.12 6.557-16.442 6.177-93.795-4.155-177.547-41.575-242.177-108.182-171.292-176.598-168.008-509.487-167.070-546.303l0.011-347.142c0-12.332 10.008-22.34 22.34-22.34h342.808c12.332 0 22.34 10.008 22.34 22.34v342.841c0 12.332-10.008 22.34-22.34 22.34h-175.168c0.034 28.618 3.496 282.702 113.767 396.033 29.857 30.684 65.199 47.070 108.070 50.098 11.706 0.827 20.754 10.556 20.754 22.284v145.702c0 6.088-2.491 11.918-6.892 16.152z" />
<glyph unicode="&#xe914;" glyph-name="villa" d="M1018.073 266.392l-390.799 276.573c-8.138 5.79-19.581 1.345-21.678-8.434l-33.509-155.668-206.409-111.605c-12.742-6.907-7.842-26.214 6.633-26.214h89.562v-94.394h-81.584c-24.436 0-44.245-19.809-44.245-44.245v-163.669h56.076v142.15c0 4.582 3.716 8.275 8.275 8.275h61.478v-150.447h503.383v302.331h44.77c13.563 0 19.171 17.461 8.047 25.348zM852.080 89.206h-86.849c-7.363 0-13.358 6.018-13.358 13.358v69.046c0 7.363 5.995 13.358 13.358 13.358h86.849c7.363 0 13.335-5.995 13.335-13.358v-69.046c-0.023-7.386-5.972-13.358-13.335-13.358zM81.971 824.415c42.969 8.981 90.451 0.274 135.312-35.378 20.789-16.526 36.062-34.876 46.57-54.207-13.472 15.295-32.187 26.123-53.865 29.36-33.235 4.992-66.242-11.329-86.234-38.364-8.024-10.828-12.606-21.633-14.84-32.278-1.527-7.249 6.998-12.788 12.834-8.206 20.037 15.592 46.73 23.844 79.395 19.239 26.83-3.784 47.414-14.771 62.208-29.953-2.348-2.029-250.7-281.656-263.351-735.87h152.659c-13.335 500.899 160.751 695.751 160.888 696.48v0c16.709-11.056 30.842-27.992 39.983-51.745 11.899-30.865 9.847-58.834-0.912-81.948-3.1-6.633 4.149-13.609 10.782-10.531 9.939 4.605 19.513 11.557 28.334 21.883 21.792 25.599 30.249 61.433 17.849 92.662-8.069 20.402-22.818 36.176-40.78 45.841 21.199-5.881 42.536-16.618 63.325-33.121 44.154-35.082 63.461-78.506 64.966-121.748 0.296-8.115 10.235-11.717 15.455-5.471 14.361 17.187 25.189 39.025 29.087 68.066 6.793 50.423-10.623 102.692-50.719 134.012-12.97 10.144-27.172 17.643-41.943 22.636 1.482-0.137 2.941-0.296 4.445-0.479 53.933-6.291 92.366-31.32 116.642-65.239 5.653-7.91 18.51-4.513 19.467 5.152 1.824 18.852-0.41 39.185-9.141 61.25-20.333 51.061-65.080 89.197-119.834 93.824-19.672 1.641-38.774-0.821-56.463-6.702 1.732 18.532-0.16 37.68-6.2 56.441-16.846 52.292-64.123 87.328-118.443 95.58-24.14 3.647-44.906 1.003-63.211-5.425-8.639-3.032-9.050-15.615-0.57-19.057 39.116-15.751 72.762-47.71 91.294-99.409 0.501-1.436 0.98-2.827 1.436-4.24-8.183 13.267-18.715 25.394-31.526 35.743-39.572 31.959-94.417 37.11-141.99 19.125-28.266-10.691-47.414-26.807-61-45.385-4.331-5.972 0.821-14.065 8.092-12.537z" />
<glyph unicode="&#xe915;" glyph-name="bedroom-1" d="M1021.942 308.994l-112.718 178.454v328.275l-45.883 45.883h-702.684l-45.883-45.883v-328.272l-112.718-178.457h1019.886zM817.457 769.839v-229.054c-59.132 15.296-161.283 34.158-305.459 34.158s-246.327-18.862-305.459-34.158v229.054h610.918zM0 252.531v-91.766h106.916v-126.368h91.766v126.368h626.633v-126.368h91.766v126.368h106.918v91.766zM474.76 622.685v53.458c0 31.73-46.051 57.461-102.857 57.461s-102.854-25.731-102.854-57.461v-80.241c0 0 60.671 15.275 102.372 19.224 37.543 3.558 103.339 7.559 103.339 7.559zM754.951 595.902v80.241c0 31.73-46.051 57.461-102.857 57.461s-102.857-25.731-102.857-57.461v-53.458c0 0 65.799-3.998 103.342-7.559 41.704-3.949 102.372-19.224 102.372-19.224z" />
<glyph unicode="&#xe916;" glyph-name="tower" d="M310.454 924.89h402.122c5.75 0 10.411 4.661 10.411 10.411v14.289c0 5.75-4.661 10.411-10.411 10.411h-403.72c-5.75 0-10.411-4.661-10.411-10.411v-14.289c0-5.75 4.661-10.411 10.411-10.411h1.598zM256.042 893.746v-908.833h-112.338c-5.75 0-10.411-4.663-10.411-10.411v-28.092c0-5.749 4.661-10.411 10.411-10.411h736.59c5.748 0 10.411 4.662 10.411 10.411v28.092c0 5.748-4.663 10.411-10.411 10.411h-113.38v908.833c0 5.75-4.661 10.411-10.411 10.411h-490.052c-5.75 0-10.411-4.661-10.411-10.411zM667.561 863.395c0 5.75 4.661 10.411 10.411 10.411h45.337c5.75 0 10.411-4.661 10.411-10.411v-45.337c0-5.75-4.661-10.411-10.411-10.411h-45.337c-5.75 0-10.411 4.661-10.411 10.411v45.337zM667.561 772.427c0 5.75 4.661 10.411 10.411 10.411h45.337c5.75 0 10.411-4.661 10.411-10.411v-45.337c0-5.749-4.661-10.411-10.411-10.411h-45.337c-5.75 0-10.411 4.662-10.411 10.411v45.337zM667.561 681.46c0 5.749 4.661 10.411 10.411 10.411h45.337c5.75 0 10.411-4.662 10.411-10.411v-45.337c0-5.75-4.661-10.411-10.411-10.411h-45.337c-5.75 0-10.411 4.661-10.411 10.411v45.337zM667.561 590.492c0 5.75 4.661 10.411 10.411 10.411h45.337c5.75 0 10.411-4.661 10.411-10.411v-45.336c0-5.749-4.661-10.411-10.411-10.411h-45.337c-5.75 0-10.411 4.662-10.411 10.411v45.336zM667.561 499.527c0 5.749 4.661 10.411 10.411 10.411h45.337c5.75 0 10.411-4.662 10.411-10.411v-45.338c0-5.749-4.661-10.411-10.411-10.411h-45.337c-5.75 0-10.411 4.662-10.411 10.411v45.338zM667.561 408.558c0 5.75 4.661 10.411 10.411 10.411h45.337c5.75 0 10.411-4.661 10.411-10.411v-45.337c0-5.748-4.661-10.411-10.411-10.411h-45.337c-5.75 0-10.411 4.663-10.411 10.411v45.337zM667.561 317.59c0 5.75 4.661 10.411 10.411 10.411h45.337c5.75 0 10.411-4.661 10.411-10.411v-45.337c0-5.749-4.661-10.411-10.411-10.411h-45.337c-5.75 0-10.411 4.662-10.411 10.411v45.337zM667.561 226.623c0 5.749 4.661 10.411 10.411 10.411h45.337c5.75 0 10.411-4.662 10.411-10.411v-45.337c0-5.749-4.661-10.411-10.411-10.411h-45.337c-5.75 0-10.411 4.662-10.411 10.411v45.337zM667.561 135.655c0 5.75 4.661 10.411 10.411 10.411h45.337c5.75 0 10.411-4.661 10.411-10.411v-45.337c0-5.75-4.661-10.411-10.411-10.411h-45.337c-5.75 0-10.411 4.661-10.411 10.411v45.337zM667.561 44.688c0 5.749 4.661 10.411 10.411 10.411h45.337c5.75 0 10.411-4.662 10.411-10.411v-45.337c0-5.749-4.661-10.411-10.411-10.411h-45.337c-5.75 0-10.411 4.662-10.411 10.411v45.337zM572.982 863.395c0 5.75 4.661 10.411 10.411 10.411h45.337c5.75 0 10.411-4.661 10.411-10.411v-45.337c0-5.75-4.661-10.411-10.411-10.411h-45.337c-5.75 0-10.411 4.661-10.411 10.411v45.337zM572.982 772.427c0 5.75 4.661 10.411 10.411 10.411h45.337c5.75 0 10.411-4.661 10.411-10.411v-45.337c0-5.749-4.661-10.411-10.411-10.411h-45.337c-5.75 0-10.411 4.662-10.411 10.411v45.337zM572.982 681.46c0 5.749 4.661 10.411 10.411 10.411h45.337c5.75 0 10.411-4.662 10.411-10.411v-45.337c0-5.75-4.661-10.411-10.411-10.411h-45.337c-5.75 0-10.411 4.661-10.411 10.411v45.337zM572.982 590.492c0 5.75 4.661 10.411 10.411 10.411h45.337c5.75 0 10.411-4.661 10.411-10.411v-45.336c0-5.749-4.661-10.411-10.411-10.411h-45.337c-5.75 0-10.411 4.662-10.411 10.411v45.336zM572.982 499.527c0 5.749 4.661 10.411 10.411 10.411h45.337c5.75 0 10.411-4.662 10.411-10.411v-45.338c0-5.749-4.661-10.411-10.411-10.411h-45.337c-5.75 0-10.411 4.662-10.411 10.411v45.338zM572.982 408.558c0 5.75 4.661 10.411 10.411 10.411h45.337c5.75 0 10.411-4.661 10.411-10.411v-45.337c0-5.748-4.661-10.411-10.411-10.411h-45.337c-5.75 0-10.411 4.663-10.411 10.411v45.337zM572.982 317.59c0 5.75 4.661 10.411 10.411 10.411h45.337c5.75 0 10.411-4.661 10.411-10.411v-45.337c0-5.749-4.661-10.411-10.411-10.411h-45.337c-5.75 0-10.411 4.662-10.411 10.411v45.337zM572.982 226.623c0 5.749 4.661 10.411 10.411 10.411h45.337c5.75 0 10.411-4.662 10.411-10.411v-45.337c0-5.749-4.661-10.411-10.411-10.411h-45.337c-5.75 0-10.411 4.662-10.411 10.411v45.337zM572.982 135.655c0 5.75 4.661 10.411 10.411 10.411h45.337c5.75 0 10.411-4.661 10.411-10.411v-45.337c0-5.75-4.661-10.411-10.411-10.411h-45.337c-5.75 0-10.411 4.661-10.411 10.411v45.337zM478.4 863.395c0 5.75 4.662 10.411 10.411 10.411h45.338c5.748 0 10.411-4.661 10.411-10.411v-45.337c0-5.75-4.663-10.411-10.411-10.411h-45.338c-5.749 0-10.411 4.661-10.411 10.411v45.337zM478.4 772.427c0 5.75 4.662 10.411 10.411 10.411h45.338c5.748 0 10.411-4.661 10.411-10.411v-45.337c0-5.749-4.663-10.411-10.411-10.411h-45.338c-5.749 0-10.411 4.662-10.411 10.411v45.337zM478.4 681.46c0 5.749 4.662 10.411 10.411 10.411h45.338c5.748 0 10.411-4.662 10.411-10.411v-45.337c0-5.75-4.663-10.411-10.411-10.411h-45.338c-5.749 0-10.411 4.661-10.411 10.411v45.337zM478.4 590.492c0 5.75 4.662 10.411 10.411 10.411h45.338c5.748 0 10.411-4.661 10.411-10.411v-45.336c0-5.749-4.663-10.411-10.411-10.411h-45.338c-5.749 0-10.411 4.662-10.411 10.411v45.336zM478.4 499.527c0 5.749 4.662 10.411 10.411 10.411h45.338c5.748 0 10.411-4.662 10.411-10.411v-45.338c0-5.749-4.663-10.411-10.411-10.411h-45.338c-5.749 0-10.411 4.662-10.411 10.411v45.338zM478.4 408.558c0 5.75 4.662 10.411 10.411 10.411h45.338c5.748 0 10.411-4.661 10.411-10.411v-45.337c0-5.748-4.663-10.411-10.411-10.411h-45.338c-5.749 0-10.411 4.663-10.411 10.411v45.337zM478.4 317.59c0 5.75 4.662 10.411 10.411 10.411h45.338c5.748 0 10.411-4.661 10.411-10.411v-45.337c0-5.749-4.663-10.411-10.411-10.411h-45.338c-5.749 0-10.411 4.662-10.411 10.411v45.337zM478.4 226.623c0 5.749 4.662 10.411 10.411 10.411h45.338c5.748 0 10.411-4.662 10.411-10.411v-45.337c0-5.749-4.663-10.411-10.411-10.411h-45.338c-5.749 0-10.411 4.662-10.411 10.411v45.337zM478.4 135.655c0 5.75 4.662 10.411 10.411 10.411h45.338c5.748 0 10.411-4.661 10.411-10.411v-45.337c0-5.75-4.663-10.411-10.411-10.411h-45.338c-5.749 0-10.411 4.661-10.411 10.411v45.337zM383.819 863.395c0 5.75 4.661 10.411 10.411 10.411h45.337c5.75 0 10.411-4.661 10.411-10.411v-45.337c0-5.75-4.661-10.411-10.411-10.411h-45.337c-5.75 0-10.411 4.661-10.411 10.411v45.337zM383.819 772.427c0 5.75 4.661 10.411 10.411 10.411h45.337c5.75 0 10.411-4.661 10.411-10.411v-45.337c0-5.749-4.661-10.411-10.411-10.411h-45.337c-5.75 0-10.411 4.662-10.411 10.411v45.337zM383.819 681.46c0 5.749 4.661 10.411 10.411 10.411h45.337c5.75 0 10.411-4.662 10.411-10.411v-45.337c0-5.75-4.661-10.411-10.411-10.411h-45.337c-5.75 0-10.411 4.661-10.411 10.411v45.337zM383.819 590.492c0 5.75 4.661 10.411 10.411 10.411h45.337c5.75 0 10.411-4.661 10.411-10.411v-45.336c0-5.749-4.661-10.411-10.411-10.411h-45.337c-5.75 0-10.411 4.662-10.411 10.411v45.336zM383.819 499.527c0 5.749 4.661 10.411 10.411 10.411h45.337c5.75 0 10.411-4.662 10.411-10.411v-45.338c0-5.749-4.661-10.411-10.411-10.411h-45.337c-5.75 0-10.411 4.662-10.411 10.411v45.338zM383.819 408.558c0 5.75 4.661 10.411 10.411 10.411h45.337c5.75 0 10.411-4.661 10.411-10.411v-45.337c0-5.748-4.661-10.411-10.411-10.411h-45.337c-5.75 0-10.411 4.663-10.411 10.411v45.337zM383.819 317.59c0 5.75 4.661 10.411 10.411 10.411h45.337c5.75 0 10.411-4.661 10.411-10.411v-45.337c0-5.749-4.661-10.411-10.411-10.411h-45.337c-5.75 0-10.411 4.662-10.411 10.411v45.337zM383.819 226.623c0 5.749 4.661 10.411 10.411 10.411h45.337c5.75 0 10.411-4.662 10.411-10.411v-45.337c0-5.749-4.661-10.411-10.411-10.411h-45.337c-5.75 0-10.411 4.662-10.411 10.411v45.337zM383.819 135.655c0 5.75 4.661 10.411 10.411 10.411h45.337c5.75 0 10.411-4.661 10.411-10.411v-45.337c0-5.75-4.661-10.411-10.411-10.411h-45.337c-5.75 0-10.411 4.661-10.411 10.411v45.337zM383.819 44.688c0 5.749 4.661 10.411 10.411 10.411h234.5c5.75 0 10.411-4.662 10.411-10.411v-45.337c0-5.749-4.661-10.411-10.411-10.411h-234.5c-5.75 0-10.411 4.662-10.411 10.411v45.337zM289.239 863.395c0 5.75 4.661 10.411 10.411 10.411h45.337c5.749 0 10.411-4.661 10.411-10.411v-45.337c0-5.75-4.662-10.411-10.411-10.411h-45.337c-5.75 0-10.411 4.661-10.411 10.411v45.337zM289.239 772.427c0 5.75 4.661 10.411 10.411 10.411h45.337c5.749 0 10.411-4.661 10.411-10.411v-45.337c0-5.749-4.662-10.411-10.411-10.411h-45.337c-5.75 0-10.411 4.662-10.411 10.411v45.337zM289.239 681.46c0 5.749 4.661 10.411 10.411 10.411h45.337c5.749 0 10.411-4.662 10.411-10.411v-45.337c0-5.75-4.662-10.411-10.411-10.411h-45.337c-5.75 0-10.411 4.661-10.411 10.411v45.337zM289.239 590.492c0 5.75 4.661 10.411 10.411 10.411h45.337c5.749 0 10.411-4.661 10.411-10.411v-45.336c0-5.749-4.662-10.411-10.411-10.411h-45.337c-5.75 0-10.411 4.662-10.411 10.411v45.336zM289.239 499.527c0 5.749 4.661 10.411 10.411 10.411h45.337c5.749 0 10.411-4.662 10.411-10.411v-45.338c0-5.749-4.662-10.411-10.411-10.411h-45.337c-5.75 0-10.411 4.662-10.411 10.411v45.338zM289.239 408.558c0 5.75 4.661 10.411 10.411 10.411h45.337c5.749 0 10.411-4.661 10.411-10.411v-45.337c0-5.748-4.662-10.411-10.411-10.411h-45.337c-5.75 0-10.411 4.663-10.411 10.411v45.337zM289.239 317.59c0 5.75 4.661 10.411 10.411 10.411h45.337c5.749 0 10.411-4.661 10.411-10.411v-45.337c0-5.749-4.662-10.411-10.411-10.411h-45.337c-5.75 0-10.411 4.662-10.411 10.411v45.337zM289.239 226.623c0 5.749 4.661 10.411 10.411 10.411h45.337c5.749 0 10.411-4.662 10.411-10.411v-45.337c0-5.749-4.662-10.411-10.411-10.411h-45.337c-5.75 0-10.411 4.662-10.411 10.411v45.337zM289.239 135.655c0 5.75 4.661 10.411 10.411 10.411h45.337c5.749 0 10.411-4.661 10.411-10.411v-45.337c0-5.75-4.662-10.411-10.411-10.411h-45.337c-5.75 0-10.411 4.661-10.411 10.411v45.337zM289.239 44.688c0 5.749 4.661 10.411 10.411 10.411h45.337c5.749 0 10.411-4.662 10.411-10.411v-45.337c0-5.749-4.662-10.411-10.411-10.411h-45.337c-5.75 0-10.411 4.662-10.411 10.411v45.337z" />
<glyph unicode="&#xe917;" glyph-name="tower-1" d="M511.999 960c-137.287 0-248.582-39.115-248.582-87.367v-696.645c0-3.681-1.889-7.111-5.008-9.067-17.579-11.023-28.055-23.353-29.57-36.404-0.127-1.093-0.213-2.188-0.213-3.289v-141.723h-40.551c-5.922 0-10.722-4.801-10.722-10.722v-28.059c0-5.922 4.8-10.722 10.722-10.722h647.851c5.92 0 10.722 4.8 10.722 10.722v28.059c0 5.921-4.803 10.722-10.722 10.722h-40.552v141.722c0 1.102-0.086 2.198-0.213 3.289-1.514 13.049-11.99 25.38-29.57 36.404-3.118 1.956-5.007 5.386-5.007 9.067v696.646c0 48.252-111.295 87.367-248.583 87.367zM375.521 845.98c0 5.15 3.656 9.591 8.719 10.536 31.272 5.833 66.155 9.59 103.167 10.751 6.045 0.19 11.049-4.676 11.049-10.723v-49.351c0-5.797-4.613-10.534-10.406-10.711-35.713-1.092-69.456-4.599-99.898-10.055-6.582-1.179-12.629 3.86-12.629 10.548l-0.002 49.006zM375.521 731.381c0 5.15 3.656 9.591 8.719 10.536 31.272 5.832 66.155 9.59 103.167 10.751 6.045 0.19 11.049-4.676 11.049-10.723v-49.351c0-5.797-4.613-10.534-10.406-10.711-35.713-1.090-69.456-4.599-99.898-10.055-6.582-1.181-12.629 3.86-12.629 10.548l-0.002 49.006zM375.521 616.781c0 5.15 3.656 9.591 8.719 10.536 31.272 5.832 66.155 9.589 103.167 10.751 6.045 0.19 11.049-4.676 11.049-10.723v-49.351c0-5.797-4.613-10.534-10.406-10.711-35.713-1.090-69.456-4.599-99.898-10.054-6.582-1.181-12.629 3.86-12.629 10.547l-0.002 49.006zM375.521 502.181c0 5.151 3.656 9.591 8.719 10.536 31.272 5.832 66.155 9.59 103.167 10.751 6.045 0.19 11.049-4.676 11.049-10.723v-49.351c0-5.795-4.613-10.533-10.406-10.71-35.713-1.092-69.456-4.598-99.898-10.057-6.582-1.181-12.629 3.861-12.629 10.549l-0.002 49.005zM375.521 387.581c0 5.151 3.656 9.591 8.719 10.536 31.272 5.832 66.155 9.59 103.167 10.751 6.045 0.19 11.049-4.676 11.049-10.723v-49.351c0-5.797-4.613-10.534-10.406-10.711-35.713-1.092-69.456-4.598-99.898-10.055-6.582-1.181-12.629 3.861-12.629 10.548l-0.002 49.006zM348.434 212.903c0-4.811-3.212-9.012-7.84-10.327-14.936-4.241-28.574-9.025-40.672-14.265-7.105-3.078-15.038 2.070-15.038 9.813v47.224c0 4.136 2.389 7.881 6.113 9.683 12.643 6.118 27.294 11.691 43.611 16.599 6.885 2.070 13.828-3.079 13.828-10.269v-48.459h-0.001zM348.434 327.502c0-4.811-3.211-9.012-7.84-10.326-14.936-4.242-28.574-9.026-40.672-14.266-7.105-3.077-15.038 2.072-15.038 9.813v47.225c0 4.136 2.389 7.881 6.113 9.683 12.643 6.119 27.294 11.691 43.611 16.599 6.885 2.072 13.828-3.081 13.828-10.269v-48.46h-0.001zM348.434 442.102c0-4.811-3.212-9.012-7.84-10.327-14.936-4.242-28.574-9.024-40.672-14.266-7.105-3.077-15.038 2.072-15.038 9.813v47.224c0 4.136 2.389 7.881 6.113 9.683 12.643 6.119 27.294 11.691 43.611 16.599 6.885 2.072 13.828-3.081 13.828-10.269v-48.458h-0.001zM348.434 556.702c0-4.811-3.212-9.012-7.84-10.326-14.936-4.242-28.574-9.025-40.672-14.266-7.105-3.076-15.038 2.072-15.038 9.813v47.224c0 4.137 2.389 7.881 6.113 9.683 12.643 6.119 27.294 11.692 43.611 16.6 6.885 2.070 13.828-3.081 13.828-10.269v-48.46h-0.001zM348.434 671.3c0-4.811-3.212-9.012-7.84-10.327-14.936-4.242-28.574-9.024-40.672-14.265-7.105-3.077-15.038 2.070-15.038 9.813v47.224c0 4.137 2.389 7.881 6.113 9.683 12.643 6.119 27.294 11.692 43.611 16.6 6.885 2.070 13.828-3.081 13.828-10.269v-48.46h-0.001zM348.434 785.9c0-4.811-3.212-9.012-7.84-10.326-14.936-4.242-28.574-9.025-40.672-14.265-7.105-3.078-15.038 2.070-15.038 9.813v47.224c0 4.137 2.389 7.881 6.113 9.683 12.643 6.119 27.294 11.692 43.611 16.6 6.885 2.070 13.828-3.081 13.828-10.269v-48.461h-0.001zM375.521 223.975v49.009c0 5.151 3.656 9.591 8.719 10.536 31.272 5.832 66.155 9.589 103.167 10.751 6.045 0.19 11.049-4.676 11.049-10.723v-49.351c0-5.797-4.613-10.534-10.406-10.711-35.713-1.092-69.456-4.599-99.898-10.055-6.582-1.182-12.631 3.858-12.631 10.544zM566.814 40.031v-54.527h-109.629v113.575c0 4.887 24.541 8.849 54.814 8.849s54.815-3.962 54.815-8.849v-59.048zM648.478 223.975c0-6.686-6.046-11.727-12.63-10.548-30.442 5.459-64.185 8.965-99.898 10.055-5.794 0.177-10.406 4.914-10.406 10.711v49.352c0 6.049 5.005 10.913 11.052 10.723 37.009-1.161 71.893-4.918 103.166-10.751 5.062-0.945 8.718-5.384 8.718-10.536v-49.007h-0.001zM648.478 338.574c0-6.686-6.046-11.727-12.63-10.548-30.442 5.459-64.185 8.965-99.898 10.055-5.794 0.177-10.406 4.914-10.406 10.711v49.351c0 6.049 5.005 10.913 11.052 10.723 37.009-1.161 71.893-4.918 103.166-10.751 5.062-0.945 8.718-5.384 8.718-10.536v-49.006h-0.001zM648.478 453.175c0-6.688-6.046-11.728-12.63-10.549-30.442 5.459-64.185 8.965-99.898 10.057-5.792 0.176-10.406 4.914-10.406 10.71v49.352c0 6.047 5.005 10.913 11.052 10.723 37.009-1.161 71.893-4.919 103.166-10.751 5.062-0.945 8.718-5.384 8.718-10.536v-49.006h-0.001zM648.478 567.775c0-6.688-6.046-11.727-12.63-10.547-30.442 5.457-64.185 8.964-99.898 10.054-5.792 0.177-10.406 4.914-10.406 10.711v49.351c0 6.049 5.005 10.913 11.052 10.723 37.009-1.161 71.893-4.918 103.166-10.751 5.062-0.945 8.718-5.385 8.718-10.536v-49.006h-0.001zM648.478 682.373c0-6.688-6.046-11.728-12.63-10.548-30.442 5.458-64.185 8.965-99.898 10.055-5.792 0.177-10.406 4.914-10.406 10.711v49.351c0 6.049 5.005 10.913 11.052 10.723 37.009-1.161 71.893-4.918 103.166-10.751 5.062-0.945 8.718-5.385 8.718-10.536v-49.006h-0.001zM648.478 796.973c0-6.688-6.046-11.727-12.63-10.548-30.442 5.458-64.185 8.965-99.898 10.055-5.794 0.177-10.406 4.914-10.406 10.711v49.351c0 6.047 5.005 10.913 11.052 10.723 37.009-1.161 71.893-4.918 103.166-10.751 5.062-0.945 8.718-5.385 8.718-10.536v-49.006h-0.001zM739.115 198.124c0-7.744-7.935-12.89-15.038-9.813-12.098 5.241-25.736 10.025-40.672 14.265-4.628 1.316-7.84 5.517-7.84 10.327v48.46c0 7.189 6.941 12.339 13.827 10.269 16.318-4.909 30.97-10.481 43.612-16.599 3.724-1.804 6.113-5.547 6.113-9.683v-47.225h-0.001zM739.115 312.724c0-7.743-7.935-12.89-15.038-9.813-12.098 5.242-25.736 10.025-40.672 14.266-4.628 1.315-7.84 5.516-7.84 10.326v48.46c0 7.189 6.941 12.34 13.827 10.269 16.318-4.909 30.97-10.48 43.612-16.599 3.724-1.804 6.113-5.547 6.113-9.683v-47.225h-0.001zM739.115 427.324c0-7.743-7.935-12.89-15.038-9.813-12.098 5.242-25.736 10.024-40.672 14.266-4.628 1.315-7.84 5.516-7.84 10.327v48.459c0 7.189 6.941 12.341 13.827 10.269 16.318-4.909 30.97-10.48 43.612-16.599 3.724-1.804 6.113-5.546 6.113-9.683v-47.225h-0.001zM739.115 541.923c0-7.743-7.935-12.89-15.038-9.813-12.098 5.242-25.736 10.025-40.672 14.266-4.628 1.315-7.84 5.516-7.84 10.326v48.461c0 7.189 6.941 12.34 13.827 10.269 16.318-4.909 30.97-10.481 43.612-16.6 3.724-1.802 6.113-5.546 6.113-9.683v-47.225h-0.001zM739.115 656.523c0-7.743-7.935-12.89-15.038-9.813-12.098 5.241-25.736 10.023-40.672 14.265-4.628 1.315-7.84 5.516-7.84 10.327v48.46c0 7.189 6.941 12.34 13.827 10.269 16.318-4.909 30.97-10.481 43.612-16.6 3.724-1.802 6.113-5.546 6.113-9.683v-47.224h-0.001zM739.115 771.122c0-7.743-7.935-12.89-15.038-9.813-12.098 5.241-25.736 10.024-40.672 14.265-4.628 1.315-7.84 5.516-7.84 10.326v48.46c0 7.189 6.941 12.34 13.827 10.269 16.318-4.909 30.97-10.481 43.612-16.6 3.724-1.802 6.113-5.546 6.113-9.683v-47.223h-0.001z" />
<glyph unicode="&#xe918;" glyph-name="condo" d="M276.76 33.947h180.879v184.963h108.723v-184.963h180.879v828.105h-470.481v-828.105zM545.005 764.46h108.721v-108.723h-108.721v108.723zM545.005 589.726h108.721v-108.723h-108.721v108.723zM545.005 414.997h108.721v-108.723h-108.721v108.723zM370.274 764.46h108.721v-108.723h-108.721v108.723zM370.274 589.726h108.721v-108.723h-108.721v108.723zM370.274 414.997h108.721v-108.723h-108.721v108.723zM789.474 787.871v-585.533h69.849v-168.39h164.676v753.923h-234.526zM938.865 281.874h-98.985v98.982h98.982v-98.982zM938.865 440.957h-98.985v98.98h98.982v-98.98zM938.865 600.037h-98.985v98.98h98.982v-98.98zM0 33.947h164.676v168.39h69.849v585.533h-234.526v-753.923zM85.137 699.018h98.982v-98.98h-98.982v98.98zM85.137 539.937h98.982v-98.98h-98.982v98.98zM85.137 380.861h98.982v-98.98h-98.982v98.98z" />
<glyph unicode="&#xe919;" glyph-name="condo-1" d="M992.004 75.405v717.019h-289.203v71.834h-381.599v-71.831h-289.203v-717.022h-31.998v-43.661h1024v43.661h-31.996zM395.379 75.405h-319.717v673.358h319.717v-673.358zM584.963 75.405h-145.923v75.717h145.923v-75.717zM584.963 778.811h-50.179v-69.463h50.179v-42.568h-50.179v-69.463h50.179v-42.576h-50.179v-69.46h50.179v-42.571h-50.179v-69.463h50.179v-42.574h-50.179v-69.455h50.179v-69.163h-145.923v69.163h50.176v69.455h-50.176v42.574h50.176v69.463h-50.176v42.571h50.176v69.46h-50.176v42.576h50.176v69.463h-50.176v42.568h50.176v69.463h-50.176v13.614h-76.907v30.9h299.735v-30.9h-76.907v-13.614zM948.341 75.405h-319.717v673.358h319.717v-673.358zM670.971 701.28h93.21v-74.090h-93.21v74.090zM812.786 701.28h93.21v-74.090h-93.21v74.090zM670.971 581.78h93.21v-74.087h-93.21v74.087zM812.786 581.78h93.21v-74.087h-93.21v74.087zM670.971 462.277h93.21v-74.092h-93.21v74.092zM812.786 462.277h93.21v-74.092h-93.21v74.092zM670.971 342.772h93.21v-74.092h-93.21v74.092zM812.786 342.772h93.21v-74.092h-93.21v74.092zM670.971 223.269h93.21v-74.092h-93.21v74.092zM812.786 223.269h93.21v-74.092h-93.21v74.092zM118.010 701.28h93.21v-74.090h-93.21v74.090zM259.821 701.28h93.21v-74.090h-93.21v74.090zM118.010 581.78h93.21v-74.087h-93.21v74.087zM259.821 581.78h93.21v-74.087h-93.21v74.087zM118.010 462.277h93.21v-74.092h-93.21v74.092zM259.821 462.277h93.21v-74.092h-93.21v74.092zM118.010 342.772h93.21v-74.092h-93.21v74.092zM259.821 342.772h93.21v-74.092h-93.21v74.092zM118.010 223.269h93.21v-74.092h-93.21v74.092zM259.821 223.269h93.21v-74.092h-93.21v74.092z" />
<glyph unicode="&#xe91a;" glyph-name="city" d="M880.195 561.411v305.486h-120.861v-441.79h-69.445v195.442h-177.89v133.719h-156.425v-313.667h-38.813v97.661h-182.363v133.719h-134.399v-642.896h1024.017v532.342h-143.822zM82.371 502.495h-44.29v105.162h44.29v-105.162zM188.673 298.038h-44.29v178.264h44.29v-178.264zM261.757 371.123h-44.29v105.179h44.29v-105.179zM427.843 449.905h-44.29v105.162h44.29v-105.162zM427.843 601.057h-44.29v105.179h44.29v-105.179zM503.156 302.936h-44.29v105.145h44.29v-105.145zM585.085 449.905h-44.29v105.162h44.29v-105.162zM835.327 355.526h-44.29v105.179h44.29v-105.179zM835.327 548.485h-44.29v105.162h44.29v-105.162zM835.327 723.84h-44.29v105.145h44.29v-105.145zM928.345 266.42h-44.29v178.23h44.29v-178.23z" />
<glyph unicode="&#xe91b;" glyph-name="church" d="M923.643 184.594v112.993l-225.984 108.434v-441.834h85.854v72.556l39.701 65.711 39.701-65.711v-72.556h161.086v220.406zM100.352 184.594h-100.352v-220.406h161.086v72.556l39.701 65.711 39.701-65.711v-72.556h85.849v442.072l-225.984-108.673zM353.715 416.76v-452.572h118.584v162.909l39.701 65.711 39.701-65.711v-162.909h118.579v452.572l-158.279 242.088-158.285-242.088zM573.144 442.875v-37.417h-42.439v-51.11h-37.417v51.11h-42.439v37.417h42.439v33.77h37.417v-33.77h42.439zM512 734.249l186.738-285.595 256.813-122.048v43.534l-229.951 109.283-201.64 308.41v82.982h47.843v23.922h-47.843v37.075h-23.919v-37.075h-47.843v-23.922h47.843v-82.982l-201.64-308.41-229.951-109.283v-43.534l256.813 122.048z" />
<glyph unicode="&#xe91c;" glyph-name="church-1" d="M608.001 448v192.002h63.992l-127.993 127.999v64.001h64.001v63.996h-64.001v64.003h-64.003v-64.003h-64.003v-63.996h64.003v-64.003l-128.003-127.999h64.003v-192.002l-319.994-255.994h127.999v-256.008h191.997v160.003c0 52.988 42.968 96.003 96.003 96.003 53.009 0 96.001-43.015 96.001-96.003v-160.003h191.997v256.011h128.003l-320.003 255.994zM544 511.996h-64.003v95.997c0 17.69 14.311 32.007 32.002 32.007s32-14.317 32-32.007v-95.997z" />
<glyph unicode="&#xe91d;" glyph-name="city-1" d="M536.482 928.348l211.725-138.279v-825.306h-211.725zM764.789 333.507v-364.411h259.228v281.603l-259.228 82.808zM874.236 48.319l-79.206 23.055v68.366l79.206-28.746v-62.675zM874.236 167.875l-79.206 23.072v68.332l79.206-28.78v-62.624zM973.609 19.555l-79.24 23.021v68.4l79.24-28.797v-62.624zM973.609 139.094l-79.223 23.038v68.366l79.257-28.746v-62.658h-0.034zM250.597 764.16v-547.203l-37.428-24.448v182.758l-23.752-9.82v182.299l-172.87-76.317v-177.593l-16.548-6.864v-322.209h512.306v966.456l-261.709-167.059zM32.399 436.651l58.342 26.997v-70.201l-58.342-25.926v69.131zM36.732 322.871l58.325 27.031v-70.252l-58.325-25.892v69.114zM96.824 70.677l-58.325-25.96v69.165l58.325 26.997v-70.201zM96.824 177.644l-58.325-25.977v69.165l58.325 26.98v-70.167zM105.132 470.494l58.342 26.997v-70.218l-58.342-25.909v69.131zM109.464 356.732l58.325 26.997v-70.218l-58.325-25.943v69.165zM174.62 104.13l-58.342-25.943v69.131l58.342 27.031v-70.218zM174.62 211.079l-58.342-25.909v69.097l58.342 27.014v-70.201zM361.489 198.915l-80.684-50.51v74.89l80.684 52.192v-76.572zM361.489 325.454l-80.684-50.476v74.924l80.684 52.192v-76.64zM361.489 452.027l-80.684-50.527v74.941l80.684 52.226v-76.64zM361.489 578.582l-80.684-50.459v74.89l80.684 52.226v-76.657zM361.489 705.172l-80.684-50.493v74.907l80.684 52.209v-76.623zM481.028 273.703l-93.613-58.58v77.184l93.613 60.585v-79.189zM481.028 400.276l-93.613-58.597v77.201l93.613 60.619v-79.223zM481.028 526.849l-93.613-58.597v77.167l93.613 60.636v-79.206zM481.028 653.422l-93.613-58.597v77.184l93.613 60.619v-79.206zM481.028 780.012l-93.613-58.597v77.184l93.613 60.619v-79.206z" />
<glyph unicode="&#xe91e;" glyph-name="city-2" d="M127.54 719.508l-56.467-761.635h-71.073l52.861 643.21zM934.715 595.573l41.916-637.7h47.351l-44.624 553.869zM344.347 792.375l-138.467-834.502h296.996v980.273l-158.528-145.771zM473.736 114.59l-223.643-83.794 12.758 87.455 210.904 85.624v-89.285zM473.736 245.753l-207.71-85.606 12.739 87.455 194.971 87.455v-89.304zM473.736 376.917l-188.583-81.963 12.758 87.474 175.825 83.775v-89.285zM473.736 506.306l-165.795-85.643 12.739 87.474 153.037 87.474 0.019-89.304zM473.736 639.338l-146.686-87.492 12.758 87.455 133.928 89.304v-89.267zM473.736 768.69l-127.559-85.606 18.212 85.606 109.347 89.285v-89.285zM646.815 828.836l-127.559 109.309v-980.273h287.88l-160.322 870.963zM537.506 857.975l94.721-67.412 17.334-78.358-112.055 65.619v80.151zM537.506 728.605l112.055-54.206 13.636-75.146-125.691 49.182v80.17zM537.506 599.253l125.691-47.426 17.259-81.963-142.95 49.2v80.189zM537.506 469.901l142.95-49.238 18.305-96.066-161.256 56v89.304zM537.506 340.531l165.795-59.25 17.913-89.528-183.689 61.771-0.019 87.007zM537.506 211.16l183.708-66.516 20.622-83.532-204.311 61.211v88.837zM142.11 712.205l-58.297-754.332h109.309l15.093 92.947-100.866 26.431 3.642 42.831 103.351-31.624 4.8 29.606-106.227 30.839 3.642 42.831 108.674-36.48 4.838 30.017-112.354 32.912 3.642 42.831 114.726-38.927 4.95 30.372-117.136 36.106 3.642 42.85 119.452-42.495 5.025 30.783-124.458 39.431 3.661 42.831 123.842-45.11v-18.305l23.722 145.883v169.456l-136.674 58.316zM257.77 388.797l-122.030 43.746 3.642 42.85 118.387-48.323v-38.273zM260.534 458.937l-118.686 42.588 3.661 42.831 115.025-47.164v-38.255zM263.28 529.095l-114.782 40.982 3.642 42.831 111.159-45.558-0.019-38.255zM266.026 599.253l-114.801 40.963 3.642 42.85 111.177-45.558v-38.255zM925.599 604.726l-136.655-54.655-23.685-295.165 12.702-62.761 152.234 37.619 2.708-49.649-146.163-31.306 6.201-30.596 141.773 28.243 4.408-53.497-137.197-19.239 23.461-115.81h134.844l-34.631 646.815zM801.104 520.372l112.018 41.15 1.961-46.996-117.042-35.322 3.063 41.168zM795.014 454.696l123.804 38.329 2.428-42.177-129.277-37.283 3.045 41.131zM788.925 389.040l132.359 41.15 2.017-44.587-137.421-37.713 3.045 41.15zM782.854 323.365l142.465 41.15 1.644-45.371-147.153-36.947 3.045 41.168zM773.739 216.558l3.007 41.112 150.216 41.15 3.231-43.317-156.455-38.946z" />
<glyph unicode="&#xe91f;" glyph-name="church-2" d="M939.015 422.286l-322.123 322.156c-19.711 19.713-44.146 32.802-70.619 39.060v59.303h14.393c18.926 0 34.273 15.347 34.273 34.273 0 18.928-15.347 34.273-34.273 34.273h-14.393v14.378c0 18.926-15.345 34.271-34.273 34.271-18.926 0-34.273-15.347-34.273-34.271v-14.376h-14.374c-18.926 0-34.273-15.345-34.273-34.273 0-18.926 15.347-34.273 34.273-34.273h14.374v-59.322c-26.454-6.259-50.873-19.328-70.584-39.042l-322.156-322.158c-20.082-20.062-20.082-52.628 0-72.694 20.080-20.080 52.612-20.080 72.694 0l322.156 322.156c17.201 17.17 47.155 17.17 64.358 0l322.123-322.156c10.042-10.038 23.196-15.058 36.35-15.058s26.308 5.020 36.346 15.058c20.082 20.066 20.082 52.614 0 72.694zM538.491 593.345c-14.726 14.378-38.221 14.378-52.948 0l-243.537-237.714c-20.416-19.915-31.913-47.225-31.913-75.726v-310.041c0-18.71 15.161-33.869 33.873-33.869h162.223v143.696c0 58.438 47.377 105.811 105.813 105.811 58.454 0 105.83-47.373 105.83-105.827v-143.68h162.225c18.71 0 33.871 15.159 33.871 33.869v310.043c0 28.501-11.495 55.808-31.895 75.726l-243.542 237.712z" />
<glyph unicode="&#xe920;" glyph-name="condo-2" d="M641.571 953.227l-419.48-165.106c-64.246-19.242-107.263-54.238-107.263-94.238 0-60.725 99.007-109.942 221.147-109.942 96.412 0 178.384 30.699 208.611 73.48l180.271 95.569v25.965l75.081 32.856h48.678l83.303 36.967-194.475 99.697c-25.897 13.277-68.796 15.383-95.873 4.752zM328.949 562.542c-21.938 0.152-43.892 1.752-65.123 4.853v-170.582c19.697-2.965 41.416-4.752 65.123-4.971v170.7zM408.124 383.164c-19.629-2.999-41.298-4.869-65.089-5.308v-174.053c24.078 1.011 45.746 3.606 65.089 7.329v172.031zM408.124 568.574c-21.129-3.437-43.067-5.409-65.089-5.88v-170.734c23.892 0.421 45.611 2.393 65.089 5.493v171.122zM249.757 569.719c-23.168 4.162-45.224 10.093-65.106 17.81v-169.858c18.433-7.296 40.068-13.8 65.106-18.467v170.515zM249.757 384.748c-24.802 4.398-46.42 10.497-65.106 17.456v-177.558c18.753-6.554 40.371-12.216 65.106-16.057v176.16zM323.642 203.314c1.803 0 3.522 0.067 5.324 0.101v174.357c-23.64 0.202-45.308 1.904-65.123 4.752v-175.856c17.608-2.14 36.63-3.353 57.187-3.353 0.859-0.017 1.735-0.017 2.612 0zM487.333 404.108c-18.349-7.329-39.916-13.85-65.106-18.568v-171.408c26.015 6.049 47.582 14.052 65.106 22.544v167.432zM170.566 593.443c-26.437 12.064-48.138 27.549-62.157 46.437v-176.935c11.39-10.16 31.592-25.459 62.157-39.326v169.824zM170.566 407.814c-28.088 11.98-48.442 25.493-62.157 36.445v-179.833c13.985-10.548 34.356-23.353 62.157-34.524v177.912zM487.333 590.444c-19.731-8.29-41.769-14.76-65.106-19.377v-171.122c25.577 5.055 47.094 11.997 65.106 19.629v170.869zM798.219 792.417l-53.985-23.471v-28.155l-187.701-100.894c-12.755-17.186-31.929-31.491-55.131-43.016v-170.852c28.138 13.884 45.746 28.846 55.131 38.315v-19.394c-12.064-10.43-29.958-23.185-55.131-34.794v-166.117c36.395 20.522 51.104 41.163 51.39 41.567 0.927 1.348 2.292 2.174 3.757 2.628v-19.983c-9.115-9.773-26.588-25.577-55.131-40.539v-203.691c0-3.892-3.151-7.043-7.043-7.043-3.875 0-7.026 3.168-7.026 7.043v196.8c-17.945-8.105-39.528-15.636-65.106-21.264v-193.16c0-3.892-3.168-7.043-7.043-7.043-3.858 0-7.026 3.151-7.026 7.043v190.33c-19.495-3.572-41.129-6.083-65.089-7.026v-187.718c0-3.875-3.168-7.026-7.043-7.026-3.892 0-7.026 3.151-7.026 7.026v187.364c-1.752-0.017-3.471-0.084-5.257-0.118-0.91 0-1.837 0-2.763 0-20.472 0-39.444 1.163-57.119 3.201v-186.016c0-3.892-3.151-7.043-7.043-7.043s-7.026 3.151-7.026 7.043v187.853c-24.516 3.623-46.167 8.913-65.106 15.131v-185.376c0-3.909-3.151-7.043-7.043-7.043s-7.043 3.168-7.043 7.043v190.364c-26.555 10.059-46.976 21.719-62.157 32.25v-137.76c-18.686-12.654-29.335-27.094-29.335-42.427v-40.118c0-49.908 112.149-90.346 250.482-90.346 138.316 0 250.465 40.438 250.465 90.346v40.118c0 9.587-4.229 18.804-11.946 27.481l158.282 74.727c10.565 4.987 19.107 14.743 19.107 21.82v12.822l49.284 21.314h38.703c11.693 0 29.25 4.819 39.259 10.834l54.069 32.3c10.025 5.982 18.13 20.287 18.13 31.946v537.308l-96.193-44.6-50.548 0.017zM722.246 338.193l-142.242-75.081v44.28l142.242 73.901v-43.101zM722.246 417.587l-142.242-75.097v44.297l142.242 73.901v-43.101zM722.246 496.947l-142.242-75.081v44.28l142.242 73.901v-43.101zM722.246 576.341l-142.242-75.081v44.28l142.242 73.901v-43.101zM722.246 655.752l-142.242-75.081v44.28l142.242 73.901v-43.101zM917.883 442.17l-67.448-34.592h-39.865v37.523h37.54l69.807 36.967-0.034-39.899zM917.883 519.61l-67.448-34.592h-39.865v37.54h37.54l69.807 36.934-0.034-39.882zM917.883 597.066l-67.448-34.608h-39.865v37.54h37.54l69.807 36.951-0.034-39.882zM917.883 674.522l-67.448-34.625h-39.865v37.557h37.54l69.807 36.951-0.034-39.882zM917.883 751.945l-67.448-34.592h-39.865v37.54h37.54l69.807 36.967-0.034-39.916z" />
<glyph unicode="&#xe921;" glyph-name="home-modern" d="M115.614 775.731l-115.614-154.147v-232.595l115.614 56.42zM884.985 548.633l-752.856 227.098v-326.193l306.507-35.345 294.681 59.952c0.511 0.114 1.024-0.035 1.551-0.035 0.53 0 1.057 0.166 1.603 0.066l154.591-28.621-6.076 103.078zM280.773 675.263l148.644-41.29v-18.217l-148.644 37.723v21.783zM429.419 543.134l-148.644 25.467v67.831l148.644-37.723v-55.575zM402.581 408.939l-276.645 28.904-113.548-51.613 209.887-14.451zM743.225 456.127v-335.856l219.928 26.476h11.297v1.354l49.549 5.962v250.071l-280.775 51.993zM776.259 375.263v2.016l99.097-13.56v-212.448l-99.097-12.090v236.083zM1007.483 167.392l-33.032-4.030v186.796l33.032-4.525v-178.241zM957.935 161.346l-66.065-8.059v208.168l66.065-9.050v-191.059zM181.678 345.071v-157.994l165.16-20.232v135.431l82.582 9.631v-155.187l297.29-36.435v335.675l-235.207-47.864zM165.161 351.826v0 0z" />
<glyph unicode="&#xe922;" glyph-name="factory" d="M594.433 878.094c-4.397 6.786-5.809 11.372-5.809 11.372l2.095 1.928c0 0 4.074-1.693 11.196-4.612 3.361-1.341 7.476-2.987 12.193-4.844 4.646-1.683 9.702-3.645 15.122-4.96 2.669-0.827 5.387-1.65 8.196-1.966 1.414-0.187 2.761-0.576 4.162-0.834 1.388-0.095 2.781-0.14 4.165-0.316 5.598-0.752 10.745-0.144 16.388 0.15 2.617 0.963 5.527 1.233 8.374 2.458 2.609 1.541 6.019 2.435 8.441 4.41 1.283 0.881 2.615 1.799 4.044 2.705 1.483 0.834 3.060 1.494 4.635 3.198l9.971 8.372c0.095 0.129-0.582-0.857-0.258-0.398l0.069 0.071 0.17 0.15 0.329 0.282 1.971 1.762 2.615 2.293 4.936 4.68c3.103 3.198 7.008 5.69 10.136 8.772 3.082 3.189 7.223 5.14 10.517 8.233 3.524 2.776 7.644 4.857 11.617 7.549 8.349 3.928 18.105 6.844 26.84 5.619 2.19-0.234 4.317-0.576 6.41-0.963 2.024-0.563 3.926-1.259 5.809-1.964 3.855-1.272 7.175-3.092 10.304-4.891 6.251-3.612 11.22-7.796 15.191-11.843 3.948-4.057 6.915-8.009 9.051-11.454 2.239-3.372 3.533-6.35 4.444-8.385 0.754-2.093 1.152-3.221 1.152-3.221l-2.093-1.951c0 0-4.489 1.517-11.383 4.399-3.359 1.339-7.433 3.019-12.109 4.902-4.515 1.859-9.481 3.905-14.727 5.68-2.611 0.965-5.312 1.964-8.041 2.624-1.386 0.34-2.748 0.883-4.141 1.281-1.388 0.282-2.772 0.636-4.165 1.094-5.632 1.835-11.452 3.645-18.657 4.397-3.309-0.436-7.261-0.294-10.704-1.73-3.311-1.68-7.115-2.974-9.773-5.961-2.68-2.88-5.738-5.398-7.616-9.066l-2.731-5.467-1.255-2.753-0.61-1.365-0.301-0.705-0.15-0.316-0.071-0.165-0.047-0.105c0.271 0.4-0.421-0.636-0.374-0.576l-5.374-11.853c-1.764-3.823-5.811-8.138-9.114-11.935-3.352-4.139-7.841-6.516-11.838-9.76-4.184-2.94-9.292-4.633-13.968-6.761-9.952-2.843-20.348-3.352-29.096-1.012-4.468 0.986-8.578 2.282-12.202 4.162-3.793 1.601-7.061 3.597-10.143 5.527-6.124 4.055-10.979 8.349-14.815 12.558-3.92 4.072-6.823 8.093-8.978 11.503zM1024 205.664v-244.118h-1024v244.118h69.752v274.224l196.562 137.911v-137.911l196.532 137.911v-137.911l196.573 137.911v-271.071h67.82l36.833 479.508h112.417l32.238-479.508h75.633v-141.083l39.639 0.019zM320.995 311.079h-154.538v-142.66h154.538v142.66zM587.285 311.079h-154.542v-142.66h154.542v142.66zM856.921 311.079h-154.538v-142.66h154.538v142.66z" />
<glyph unicode="&#xe923;" glyph-name="home-1" d="M139.237 17.253c0 0-0.91-22.89 21.45-22.89 27.817 0 258.122 0.303 258.122 0.303l0.379 211.508c0 0-3.638 34.866 30.205 34.866h107.099c40.020 0 37.557-34.866 37.557-34.866l-0.455-210.826c0 0 218.367 0 252.665 0 28.385 0 27.097 28.499 27.097 28.499v389.931l-356.088 316.75-378.031-316.75c0 0 0-396.525 0-396.525zM0 443.263c0 0 32.099-59.159 102.097 0l418.317 353.89 392.205-351.692c81.026-58.438 111.382 0 111.382 0l-503.587 456.176-520.413-458.375zM903.106 797.987h-100.884l0.417-122.334 100.467-85.232z" />
<glyph unicode="&#xe924;" glyph-name="villa-1" d="M306.505 580.97l201.657 99.062 209.646-99.238c3.52-1.659 7.171-2.438 10.823-2.438 9.496 0 18.596 5.355 22.948 14.499 5.982 12.688 0.568 27.828-12.096 33.805l-62.251 29.473v21.719c0 16.173-11.342 29.297-25.361 29.297-13.339 0-24.191-11.959-25.166-27.104l-107.951 51.1c-6.985 3.289-15.092 3.26-22.043-0.162l-212.627-104.476c-12.556-6.173-17.735-21.372-11.577-33.947 6.222-12.624 21.44-17.794 33.996-11.592zM967.242 468.505c-7.485 3.343-16.55-0.656-20.907-8.885l-47.673 55.632c-3.084 3.603-7.627 5.585-12.365 5.434l-145.251-5.301c-8.576-0.308-15.297-7.548-14.979-16.119 0.289-8.61 7.519-15.302 16.1-14.979l137.767 5.008 92.571-108.049c1.557-1.806 3.412-3.162 5.458-4.073 5.311-2.394 11.758-1.674 16.482 2.359 6.535 5.61 7.269 15.429 1.694 21.945l-27.486 32.097 5.438 12.164c4.043 9.061 0.994 19.267-6.848 22.767zM39.87 377.193c2.041 0.92 3.911 2.262 5.453 4.073l92.561 108.044 137.767-5.008c8.576-0.328 15.811 6.364 16.11 14.974 0.308 8.576-6.383 15.811-14.979 16.124l-145.261 5.301c-4.734 0.152-9.296-1.836-12.36-5.434l-47.678-55.632c-4.357 8.219-13.408 12.233-20.887 8.889-7.857-3.5-10.931-13.701-6.878-22.747l5.434-12.164-27.466-32.112c-5.61-6.515-4.841-16.335 1.703-21.945 4.714-4.038 11.161-4.758 16.482-2.364zM892.45 270.485c3.196 2.545 5.894 5.761 7.651 9.731l49.254 110.208-76.001 87.152-117.046-3.72-48.197-107.824c-3.030-6.804-4.288-13.52-3.901-18.91-12.58 3.010-24.994 5.644-37.056 7.871 6.231 7.45 10.118 16.883 10.118 27.354v196.748l-171.078 79.119-171.714-83.392v-192.469c0-12.429 2.731-23.487 7.020-31.294-9.281-1.894-18.822-4.087-28.46-6.417 1.116 5.713 0.225 13.398-3.343 21.411l-48.187 107.819-117.056 3.72-76.011-87.152 49.264-110.213c1.919-4.308 4.915-7.739 8.468-10.333-45.583-27.466-89.022-62.51-126.175-107.457h548.806c-11.322 26.301-38.138 64.679-101.862 90.275-64.669 25.983-69.025 104.759-69.040 104.945v112.454c0 4.689 3.769 8.464 8.449 8.464h75.051c4.675 0 8.459-3.784 8.459-8.464v-102.752c-0.049-0.201-8.302-27.926 87.871-75.365 55.368-27.285 43.889-91.748 31.191-129.577h435.079c-41.721 45.177-86.329 80.455-131.555 108.068zM146.686 291.671l-25.856 57.86 26.042 11.626 25.856-57.821-26.042-11.665zM184.813 308.711l-25.866 57.86 26.056 11.645 25.846-57.845-26.037-11.66zM238.233 322.427l-26.316 58.883c-1.165 2.629 0 5.693 2.614 6.868l42.019 18.792c2.614 1.155 5.678-0.015 6.843-2.643l29.047-64.977c-17.72-4.787-35.871-10.402-54.208-16.922zM558.498 380.091h-46.508v103.291h46.508v-103.291zM626.55 380.091h-46.503v103.291h46.503v-103.291zM805.925 381.314l-25.498-57.037c-18.288 6.701-36.365 12.38-54.071 17.206l28.073 62.853c1.17 2.629 4.254 3.818 6.868 2.643l42.010-18.792c2.619-1.18 3.789-4.244 2.619-6.873zM806.982 320.356l25.846 57.84 26.066-11.64-25.866-57.86-26.047 11.66zM845.090 303.316l25.866 57.825 26.027-11.626-25.846-57.86-26.047 11.66z" />
<glyph unicode="&#xe925;" glyph-name="hospital" d="M966.702 172.418c1.203 3.597 1.885 7.455 1.885 11.464v421.031c0 19.959-16.188 36.136-36.147 36.136h-201.181v-448.142c0-7.195-1.3-14.075-3.597-20.49h-23.6c1.203 3.597 1.885 7.455 1.885 11.464v578.253c0 19.959-16.188 36.136-36.147 36.136h-315.625c-19.959 0-36.136-16.177-36.136-36.136v-578.253c0-4.009 0.683-7.867 1.885-11.464h-23.589c-2.297 6.415-3.597 13.295-3.597 20.49v448.142h-196.359c-19.959 0-36.136-16.177-36.136-36.136v-421.031c0-4.009 0.683-7.867 1.875-11.464h-62.119v-74.699h1024v74.699h-57.298zM168.653 320.018h-51.804v51.793h51.804v-51.793zM168.653 410.959h-51.804v51.804h51.804v-51.804zM168.653 498.899h-51.804v51.804h51.804v-51.804zM249.377 320.018h-51.804v51.793h51.804v-51.793zM249.377 410.959h-51.804v51.804h51.804v-51.804zM249.377 498.899h-51.804v51.804h51.804v-51.804zM592.415 174.834h-152.097v189.75h152.097v-189.75zM511.995 527.223c-70.354 0-127.392 57.038-127.392 127.392 0 70.365 57.048 127.403 127.392 127.403 70.365 0 127.403-57.038 127.403-127.403s-57.038-127.392-127.403-127.392zM840.882 320.018h-51.793v51.793h51.793v-51.793zM840.882 410.959h-51.793v51.804h51.793v-51.804zM840.882 498.899h-51.793v51.804h51.793v-51.804zM921.595 320.018h-51.793v51.793h51.793v-51.793zM921.595 410.959h-51.793v51.804h51.793v-51.804zM921.595 498.899h-51.793v51.804h51.793v-51.804zM543.612 686.233h48.792v-63.235h-48.792v-48.814h-63.235v48.814h-48.792v63.235h48.792v48.792h63.235v-48.792z" />
<glyph unicode="&#xe926;" glyph-name="hotel" d="M264.958-64c1.404 9.201 0.595 18.471 0.485 27.689-0.064 5.155 2.040 7.057 6.664 8.299 15.732 4.236 31.29 9.132 47.068 13.194 6.629 1.711 7.97 5.161 7.964 11.57-0.185 171.915-0.15 343.83-0.15 515.745 0 23.701-0.116 47.409 0.092 71.11 0.040 4.756-1.393 6.93-5.987 8.883-23.99 10.183-47.767 20.887-71.584 31.486-10.345 4.6-12.472 18.147-3.947 26.21 7.49 7.086 17.286 8.918 26.973 10.311 17.217 2.479 34.226 2.907 49.229-8.282 3.768-2.809 5.317-1.347 5.254 2.953-0.064 4.629-0.029 9.264-0.029 13.894-0.006 65.66 0.040 131.32-0.092 196.98-0.012 5.358 0.289 9.184 7.19 8.236 5.115-0.705 4.658 3.132 4.652 6.45-0.069 26.418-0.116 52.847-0.173 79.271 5.45 0 10.906 0 16.356 0 0.156-25.331 0.566-50.668 0.289-75.994-0.069-6.375 1.936-9.484 7.571-12.328 15.142-7.646 27.759-19.066 40.577-29.914 23.031-19.494 45.738-39.375 66.885-60.996 18.275-18.679 36.208-37.653 52.668-57.927 4.277-5.265 8.005-6.334 14.345-4.502 25.528 7.369 51.287 9.848 77.115 1.243 2.531-0.844 5.103-2.034 7.195-3.658 3.913-3.034 7.71-6.594 6.802-12.189-0.954-5.86-6.554-4.624-10.368-5.831-6.993-2.214-14.032-4.404-21.187-5.959-8.068-1.751-12.721-6.392-14.975-14.194-3.734-12.94-6.149-24.724 3.109-37.532 23.447-32.428 42.334-67.735 59.257-103.926 16.575-35.451 30.388-72.029 41.034-109.798 28.579-101.406 37.387-204.846 33.174-309.76-1.641-40.872-5.571-81.502-11.42-121.952-0.821-5.699 0.763-7.496 6.259-8.536 20.846-3.942 41.537-8.71 62.401-12.53 6.363-1.167 8.444-3.462 8.005-9.918-0.63-9.224-0.168-18.523-0.168-27.793-172.834-0.006-345.685-0.006-518.531-0.006zM411.363 794.581c1.595-3.167 2.19-4.543 2.953-5.826 19.147-32.324 34.59-66.429 48.611-101.209 15.755-39.081 29.527-78.855 40.236-119.617 11.686-44.467 20.991-89.419 27.626-134.973 7.351-50.472 11.594-101.181 13.576-152.068 1.474-37.838 0.93-75.705-0.977-113.577-2.485-49.322-7.906-98.227-17.633-146.624-1.289-6.421 0.572-7.479 6.236-7.438 25.354 0.185 50.709 0.283 76.057-0.052 5.889-0.075 7.496 2.491 8.126 7.473 2.728 21.592 6.554 43.097 8.241 64.764 6.040 77.306 6.132 154.64-1.578 231.859-4.323 43.34-10.12 86.403-20.303 128.916-15.495 64.655-39.682 125.749-71.133 184.144-28.204 52.373-61.724 101.082-100.759 145.942-5.3 6.080-9.577 13.582-19.28 18.286zM442.473 97.42c-15.784 0-31.579-0.243-47.357 0.127-5.866 0.139-7.594-1.896-7.236-7.484 0.416-6.508 0.301-13.067 0.017-19.586-0.197-4.479 1.208-6.34 5.953-6.323 31.573 0.127 63.146 0.116 94.713-0.035 4.491-0.023 5.485 1.919 5.444 5.889-0.069 7.074-0.121 14.183 0.543 21.211 0.503 5.346-1.474 6.386-6.352 6.294-15.24-0.289-30.487-0.11-45.727-0.092zM441.976 109.314c15.801 0 31.608 0.144 47.403-0.092 4.618-0.069 6.305 1.416 6.184 6.034-0.179 6.802-0.341 13.674 0.433 20.407 0.682 5.907-1.757 6.56-6.721 6.531-31.33-0.185-62.661-0.22-93.991 0.029-5.467 0.040-7.912-1.058-7.403-7.062 0.526-6.224 0.532-12.559 0.017-18.777-0.497-6.045 2.046-7.271 7.496-7.166 15.524 0.301 31.053 0.104 46.582 0.098zM441.566 231.89c9.264 0 18.535-0.243 27.793 0.069 8.6 0.289 20.153-3.838 24.979 1.722 4.739 5.462 0.139 16.627 0.052 25.308-0.006 0.543-0.092 1.092-0.064 1.636 0.185 3.208-1.404 4.103-4.462 4.098-32.151-0.081-64.308-0.098-96.459 0.006-4.433 0.012-5.612-1.959-5.49-5.987 0.202-6.531 0.41-13.102-0.052-19.61-0.399-5.6 1.214-7.536 7.114-7.38 15.512 0.41 31.053 0.139 46.588 0.139zM440.612 276.397c15.789 0 31.579 0.144 47.362-0.092 4.462-0.069 6.461 0.884 5.964 5.791-0.763 7.577-1.196 15.194-1.422 22.811-0.11 3.82-2.069 4.375-5.201 4.369-31.301-0.046-62.603-0.075-93.904 0.040-4.363 0.017-5.641-1.769-5.502-5.883 0.237-7.068 0.329-14.165-0.029-21.222-0.249-4.855 1.745-5.964 6.19-5.907 15.512 0.197 31.024 0.075 46.542 0.092zM439.578 19.455c8.721 0 17.454-0.214 26.163 0.064 8.097 0.26 18.789-3.577 23.586 1.52 4.999 5.311 2.318 16.061 3.202 24.407 0.566 5.311-0.838 6.93-6.375 6.86-24.256-0.306-48.513-0.081-72.775-0.156-8.132-0.023-19.055 2.745-23.667-1.387-5.311-4.756-0.954-15.911-1.786-24.222-0.601-6.028 2.029-7.305 7.49-7.19 14.72 0.306 29.44 0.104 44.161 0.104zM440.011 321.731c14.969 0 29.937 0.22 44.9-0.121 5.201-0.116 6.652 1.451 5.941 6.479-0.913 6.45-1.641 12.986-1.63 19.482 0.012 5.883-2.45 7.166-7.877 7.109-22.586-0.26-45.178 0.092-67.758-0.22-8.288-0.116-19.182 3.866-24.198-1.896-4.803-5.519-0.821-16.177-1.503-24.528-0.416-5.086 1.456-6.513 6.404-6.421 15.24 0.272 30.487 0.098 45.721 0.116zM432.851 443.296c12.807 0 25.609 0.092 38.416-0.052 4.034-0.046 6.109 0.595 5.063 5.473-1.364 6.357-2.63 12.871-2.728 19.338-0.116 7.612-3.89 8.409-10.23 8.259-16.61-0.387-33.238 0.069-49.853-0.208-8.322-0.139-19.691 3.774-24.123-1.757-4.173-5.201-1.035-16.113-1.503-24.487-0.283-5.022 1.566-6.733 6.542-6.641 12.801 0.237 25.609 0.075 38.416 0.075zM387.973 748.097c0-37.329 0.11-72.139-0.116-106.943-0.035-5.288 1.988-6.45 6.693-6.334 9.785 0.243 19.604 0.48 29.365-0.069 7.097-0.399 7.432 2.138 5.485 7.883-9.068 26.695-18.067 53.431-29.227 79.334-3.468 8.045-5.514 16.864-12.2 26.129zM428.516 488.612c11.449 0 22.91 0.26 34.347-0.116 5.485-0.179 6.502 1.572 5.236 6.594-1.659 6.577-2.901 13.293-3.838 20.014-0.665 4.791-2.936 6.236-7.612 6.19-20.719-0.202-41.439-0.22-62.152-0.012-4.814 0.046-6.97-1.075-6.617-6.352 0.433-6.513 0.451-13.102 0-19.615-0.387-5.635 1.965-6.953 7.114-6.814 11.16 0.301 22.343 0.092 33.521 0.11zM423.598 533.212c9.542 0 19.084 0.162 28.62-0.064 5.254-0.127 8.421 0.185 6.040 7.034-2.398 6.889-3.589 14.212-5.201 21.367-0.699 3.109-2.242 4.508-5.623 4.485-18.263-0.127-36.526-0.11-54.783-0.029-3.416 0.017-4.855-1.081-4.745-4.716 0.231-7.351 0.301-14.726-0.006-22.072-0.202-4.797 1.821-6.149 6.265-6.063 9.808 0.202 19.621 0.064 29.435 0.058zM437.33 366.279c14.425 0 28.851-0.075 43.276 0.069 2.508 0.023 7.496-1.503 6.022 3.508-1.323 4.502 3.462 12.952-6.12 13.044-28.845 0.272-57.702-0.075-86.547 0.214-8.12 0.081-5.623-5.317-5.976-9.444-0.381-4.392-0.301-7.75 6.080-7.542 14.402 0.474 28.839 0.15 43.265 0.15zM442.433 168.495c-15.807 0-31.614-0.15-47.414 0.092-4.947 0.075-7.559-0.722-7.195-6.583 0.295-4.82 0.144-8.126 6.75-8.062 31.879 0.301 63.77 0.312 95.65-0.017 6.496-0.069 5.982 3.427 6.196 7.687 0.243 4.866-0.659 7.247-6.565 7.068-15.801-0.485-31.614-0.168-47.42-0.185zM441.589 206.645c15.784 0 31.561 0.133 47.339-0.081 4.728-0.064 7.531 0.353 7.357 6.334-0.15 5.306-1.728 6.733-7.028 6.687-31.018-0.26-62.036-0.121-93.055-0.121-4.288 0-8.559 1.11-8.496-6.196 0.058-6.716 3.369-6.721 8.166-6.681 15.24 0.127 30.481 0.046 45.715 0.058zM418.021 578.372c8.149 0 16.298-0.035 24.447 0.029 1.803 0.017 4.022-0.717 5.23 1.219 2.502 3.999-5.19 17.223-10.056 17.252-12.767 0.075-25.534 0.023-38.3 0.017-11.755 0-11.484-0.006-11.507-12.108-0.006-5.063 1.676-6.664 6.554-6.485 7.866 0.283 15.755 0.069 23.632 0.075zM435.087 421.444c13.044 0 26.088-0.098 39.133 0.092 2.387 0.035 6.843-2.017 6.161 3.479-0.422 3.416-0.873 6.698-6.126 6.646-26.903-0.249-53.807-0.179-80.71-0.052-4.127 0.017-5.722-1.139-5.71-5.537 0.012-4.502 2.393-4.664 5.675-4.647 13.859 0.058 27.718 0.029 41.577 0.017z" />
<glyph unicode="&#xe927;" glyph-name="house" d="M473.8 95.724c5.198 0 10.277 2.119 13.949 5.792 3.67 3.647 5.767 8.749 5.767 13.924 0 5.2-2.097 10.277-5.767 13.949-3.672 3.672-8.751 5.767-13.949 5.767-5.2 0-10.277-2.095-13.949-5.767-3.647-3.672-5.767-8.749-5.767-13.949 0-5.175 2.117-10.277 5.767-13.924 3.672-3.672 8.749-5.792 13.949-5.792zM316.072 291.196h-138.32c-10.888 0-19.716-8.828-19.716-19.716v-196.852c0-10.888 8.828-19.716 19.716-19.716h138.32c10.888 0 19.716 8.828 19.716 19.716v196.852c0 10.888-8.828 19.716-19.716 19.716zM296.356 251.764v-58.995h-98.888v58.995h98.888zM197.468 94.344v58.995h98.888v-58.995h-98.888zM709.673 54.912h138.32c10.888 0 19.716 8.828 19.716 19.716v196.852c0 10.888-8.828 19.716-19.716 19.716h-138.32c-10.888 0-19.716-8.828-19.716-19.716v-196.852c0-10.888 8.828-19.716 19.716-19.716zM729.389 94.344v58.995h98.888v-58.995h-98.888zM828.277 251.764v-58.995h-98.888v58.995h98.888zM316.072 587.141h-138.32c-10.888 0-19.716-8.828-19.716-19.716v-196.852c0-10.888 8.828-19.716 19.716-19.716h138.32c10.888 0 19.716 8.828 19.716 19.716v196.852c0 10.888-8.828 19.716-19.716 19.716zM296.356 547.709v-58.995h-98.888v58.995h98.888zM197.468 390.289v58.995h98.888v-58.995h-98.888zM414.241 350.857h195.519c10.888 0 19.716 8.828 19.716 19.716v196.852c0 10.888-8.828 19.716-19.716 19.716h-195.519c-10.888 0-19.716-8.828-19.716-19.716v-196.852c0-10.888 8.828-19.716 19.716-19.716zM433.957 390.289v58.995h156.087v-58.995h-156.087zM590.043 547.709v-58.995h-156.087v58.995h156.087zM709.673 350.857h138.32c10.888 0 19.716 8.828 19.716 19.716v196.852c0 10.888-8.828 19.716-19.716 19.716h-138.32c-10.888 0-19.716-8.828-19.716-19.716v-196.852c0-10.888 8.828-19.716 19.716-19.716zM729.389 390.289v58.995h98.888v-58.995h-98.888zM828.277 547.709v-58.995h-98.888v58.995h98.888zM986.005-24.568h-20.537v651.449h19.408c0.017 0 0.037 0 0.049 0 10.891 0 19.716 8.828 19.716 19.716 0 2.876-0.614 5.607-1.72 8.071l-77.77 213.3c-2.837 7.783-10.238 12.963-18.523 12.963h-38.404v59.353c0 10.888-8.828 19.716-19.716 19.716h-119.22c-10.888 0-19.716-8.828-19.716-19.716v-59.353h-592.2c-8.283 0-15.684-5.18-18.523-12.963l-78.248-214.619c-2.206-6.045-1.321-12.786 2.368-18.057s9.718-8.411 16.155-8.411h19.408v-651.449h-20.537c-10.888 0-19.716-8.828-19.716-19.716s8.828-19.716 19.716-19.716h948.010c10.888 0 19.716 8.828 19.716 19.716s-8.828 19.716-19.716 19.716zM749.004 920.568h79.788v-39.637h-79.788v39.637zM131.171 841.499h761.661l63.872-175.187h-889.406l63.872 175.187zM97.964 626.881h828.072v-651.449h-296.561v296.048c0 10.888-8.828 19.716-19.716 19.716h-195.519c-10.888 0-19.716-8.828-19.716-19.716v-296.048h-296.561v651.449zM590.043-24.568h-156.087v276.332h156.087v-276.332z" />
<glyph unicode="&#xe928;" glyph-name="house-1" d="M734.976 918.784l-539.072 3.872-195.904-301.408v-34.496l458.784-98.72 238.752 396.096 260.512-309.024 65.952 0.608zM475.264 459.872l-450.464 99.296 0.16-389.632 263.392-112.704v249.472l131.328-39.040v-266.624l62.72-26.88v-0.416l449.024 192.096v404.416l-231.872 274.624-224.288-384.608zM204.704 205.568l-111.616 38.816v93.568l111.616-34.368v-98.016zM210.624 358.464l-112.128 32v93.792l112.128-27.552v-98.24zM419.712 298.816l-131.328 37.472v101.28l131.328-32.256v-106.496zM702.048 180.384l-134.944-47.232v109.408l134.944 41.664v-103.84zM754.56 455.328l117.056 28.8v-96.832l-117.056-33.696v101.728zM753.568 300.064l117.184 36.192v-96.864l-117.184-40.992v101.664zM703.2 338.88l-134.912-38.752v109.312l134.912 33.216v-103.776z" />
<glyph unicode="&#xe929;" glyph-name="house-2" d="M860.479 585.28c-13.842 0-25.078-11.219-25.078-25.078v-444.213h-80.516c0.902 0-3.077 4.797-3.077 7.69v162.554c0 13.859-6.654 30.377-20.514 30.377h-104.977c-13.842 0-24.978-16.535-24.978-30.377v-162.556c0-2.893 0.484-7.69 1.387-7.69h-419.354v203.534c0 13.859-11.236 25.076-25.078 25.076s-25.078-11.217-25.078-25.076v-229.148c0-13.859 7.573-24.543 21.417-24.543h714.155c13.842 0 16.767 10.7 16.767 24.543v469.828c0 13.859-11.234 25.078-25.076 25.078zM651.495 123.677v142.778h50.156v-142.778c0-2.893 5.167-7.69 6.070-7.69h-57.814c0.902 0 1.588 4.782 1.588 7.69zM1017.533 513.975l-278.415 307.924c-4.665 5.167-11.267 8.159-18.24 8.259-7.171 0.218-17.821-2.709-22.637-7.724l-197.214-201.56v75.033c0 13.861-2.876 21.952-16.719 21.952h-108.086c-13.842 0-25.664-8.092-25.664-21.952v-160.081l-16.083 11.886c-8.594 6.236-20.045 6.387-28.772 0.385l-294.818-202.13c-11.435-7.824-14.311-23.44-6.47-34.858 4.866-7.088 12.74-10.901 20.714-10.901 4.899 0 9.83 1.421 14.16 4.397l280.306 192.146 173.005-125.624c11.219-8.142 26.865-5.634 35.042 5.567 8.125 11.202 5.65 26.883-5.55 35.027l-86.235 62.628c2.876 1.287 5.583 3.075 7.891 5.483l276.258 288.448 260.326-287.931c4.949-5.483 11.753-8.259 18.591-8.259 6.003 0 12.022 2.14 16.821 6.47 10.267 9.281 11.068 25.148 1.789 35.413zM407.52 514.508c-4.046-4.23-5.92-9.529-6.454-14.93l-6.336 4.397c3.862 4.414 5.985 10.115 5.985 16.434v147.291h50.156v-86.217c0-3.763 5.065-7.307 6.554-10.499l-49.905-56.476z" />
<glyph unicode="&#xe92a;" glyph-name="house-3" d="M866.073 585.211c-13.836 0-25.063-11.212-25.063-25.065v-443.994h-83.552v168.006l13.269-14.672c9.306-10.294 25.148-11.062 35.392-1.787 10.26 9.291 11.062 25.133 1.772 35.409l-123.407 136.489c-4.846 5.398-11.897 8.555-19.083 8.254-7.268-0.134-14.104-3.423-18.748-8.99l-113.981-136.489c-8.873-10.628-7.453-26.437 3.159-35.31 4.697-3.91 10.394-5.831 16.060-5.831 7.185 0 14.288 3.057 19.25 9.007l2.475 2.973v-157.060h-467.894v332.368c0 13.853-11.229 25.065-25.065 25.065s-25.065-11.212-25.065-25.065v-357.968c0-13.853 14.639-24.531 28.475-24.531h784.751c13.838 0 22.291 10.695 22.291 24.531v469.596c0.032 13.853-11.197 25.065-25.035 25.065zM623.776 333.237l42.878 51.349 41.325-45.702c-0.402-1.772-0.653-3.609-0.653-5.515v-217.234h-83.551v217.102zM1017.536 513.942l-278.291 307.772c-4.662 5.164-11.279 8.155-18.231 8.256-7.084 0.218-13.652-2.707-18.449-7.72l-195.644-204.3-171.799 124.759c-8.589 6.216-17.412 6.383-26.136 0.383l-86.258-61.026v76.065c0 13.853-16.761 26.435-30.596 26.435h-108.033c-13.836 0-28.475-12.583-28.475-26.435v-175.409c0-2.841 2.289-5.513 3.159-8.072l-48.16-33.603c-11.43-7.821-13.92-23.428-6.082-34.841 4.862-7.086 12.917-10.896 20.905-10.896 4.896 0 9.927 1.421 14.254 4.394l280.199 192.035 151.982-110.355-64.068-66.925c-9.576-10.009-9.224-25.868 0.768-35.444 9.976-9.557 25.851-9.224 35.425 0.768l276.14 288.337 260.211-287.782c4.948-5.481 11.748-8.256 18.581-8.256 6 0 12.017 2.138 16.811 6.467 10.262 9.275 11.063 25.133 1.789 35.394zM105.754 734.433h66.842v-86.71l-66.842-39.687v126.397z" />
<glyph unicode="&#xe92b;" glyph-name="house-4" d="M840.483 103.608h-664.601v204.494h-51.125v-255.619h766.851v511.235h-51.125zM719.663 843.517l-220.001-225.283v98.854h-153.369v-185.543l-30.981 22.715-315.312-216.235 28.97-42.16 285.745 195.837 176.342-128.045 30.077 39.755-152.586 109.181h28.868v153.371h51.123v-85.204h21.199l-65.37-69.614 36.911-36.026 281.587 293.687 265.348-293.652 35.786 34.2zM755.279 103.608v204.494h-153.371v-204.494h51.125v153.369h51.123v-153.369z" />
<glyph unicode="&#xe92c;" glyph-name="house-5" d="M817.918 147.185h-325.864v171.507h-154.357v-171.507h-120.054v274.412h-51.453v-325.864h703.18v325.864h-51.452v-274.412zM389.15 267.24h51.452v-120.055h-51.452v120.055zM719.628 800.267l-141.82-145.061v126.556h-171.507v-95.804l-13.961 9.947-392.34-268.852 29.036-42.448 362.241 248.341 341.47-247.948 30.221 41.781-205.277 149.177h20.133v33.907l18.987-13.944 121.7 126.092 266.917-332.261 38.572 32.14-304.372 378.379zM450.069 661.706h7.683v68.602h68.604v-138.114l-76.287 69.512z" />
<glyph unicode="&#xe92d;" glyph-name="house-6" d="M503.762 793.663l406.115-232.364 89.663-0.38-197.576 320.697-90.17-0.127v78.511h-104.491v-78.701l-98.154-0.697-287.176-0.507-197.513-326.653 104.871 0.57zM924.388 491.533l-416.95 231.667-397.814-235.089v-441.537h-61.719v-110.574h933.386v110.574h-56.903v444.958zM301.814 193.394h-121.6v205.18h121.537l0.063-205.18zM592.665 40.491v0h-168.111v350.099h168.111v-350.099zM852.784 193.394h-121.537v205.18h121.537v-205.18z" />
<glyph unicode="&#xe92e;" glyph-name="apartment" d="M0-64h512v1024h-512v-1024zM320 832h128v-128h-128v128zM320 576h128v-128h-128v128zM320 320h128v-128h-128v128zM64 832h128v-128h-128v128zM64 576h128v-128h-128v128zM64 320h128v-128h-128v128zM576 640h448v-64h-448v64zM576-64h128v256h192v-256h128v576h-448v-576z" />
<glyph unicode="&#xe92f;" glyph-name="mosque" d="M190.077 960c6.083-7.133 4.644-15.499 6.047-22.656 2.088-10.666 5.816-19.068 14.57-26.475 15.535-13.143 17.144-32.066 3.91-47.352-12.269-14.175-6.957-29.443-5.719-44.59 0.364-4.498 5.057-6.405 9.003-7.928 26.111-10.096 29.838-32.333 25.522-53.945-1.22-6.095-2.902-12.5-6.077-17.721-8.736-14.357-7.382-29.662-7.491-45.483-0.127-18.376 4.814-30.761 23.64-36.382 9.27-2.768 12.767-10.612 13.107-20.884 0.759-23.021-5.585-43.503-19.615-61.406-6.878-8.784-9.246-18-9.155-28.994 0.389-47.577 1.311-95.13 3.266-142.67 0.17-4.134-0.389-8.584 3.005-11.79 4.086-3.861 13.471-2.422 16.185 3.533 6.059 13.295 11.176 27.021 16.409 40.674 1.147 2.999-0.364 6.162-1.487 9.112-22.274 58.614-8.244 112.195 23.834 162.564 35.854 56.295 85.392 96.86 146.683 123.14 8.020 3.442 13.896 7.249 18.905 16.294 5.482 9.895 14.151 22.061 29.528 21.794 2.44-0.042 5.221 0.571 7.491 4.189-6.581 9.568-8.912 20.155 0.036 30.482-2.198 10.927 1.924 21.46 2.009 32.23 0.042 5.773-4.887 8.979-7.698 13.289-7.965 12.221-7.091 24.429 3.309 35.957 3.388-10.958 1.257-23.245 11.79-31.058 10.084-7.479 20.562-4.705 32.995-2.404-3.224-9.762-10.084-11.808-16.701-14.127-10.065-3.527-9.373-3.381-7.17-14.139 2.277-11.128 0.364-22.753 6.204-33.675 2.975-5.555-3.339-11.413-6.271-15.754 1.141-4.559 4.159-4.553 6.556-4.832 17.751-2.076 28.484-12.737 34.853-28.515 2.562-6.35 8.469-7.412 13.605-9.501 43.892-17.872 81.416-45.124 113.391-79.576 31.696-34.154 56.386-72.777 65.097-119.631 5.245-28.223 4.523-56.264-6.326-83.285-2.926-7.291-3.406-13.787-0.085-21.023 4.353-9.495 7.989-19.323 11.844-29.037 2.398-6.040 6.435-9.343 13.222-8.584 6.957 0.777 7.825 5.955 8.214 11.371 0.716 9.901 1.645 19.797 1.882 29.711 0.977 41.288-0.644 82.636 2.489 123.863 0.595 7.807-3.309 12.87-7.473 18.194-14.115 18.036-20.92 38.191-19.36 61.321 0.583 8.633 3.139 15.062 10.824 19.336 5.021 2.793 9.489 6.757 14.734 8.912 9.337 3.843 12.008 10.624 11.346 19.943-0.407 5.725-0.376 11.522 0.036 17.247 1.008 13.933-1.554 26.651-9.076 38.823-6.951 11.249-10.12 24.016-9.337 37.518 1.008 17.296 8.092 30.53 25.686 35.223 9.44 2.519 12.858 7.631 12.227 16.834-0.358 5.203-0.115 10.46 0.127 15.681 0.334 7.060-1.615 12.797-6.125 18.674-15.037 19.572-12.214 37.73 7.971 52.397 5.567 4.043 8.736 8.712 9.962 15.116 1.846 9.647 3.642 19.311 5.415 28.763 5.652 0.789 5.306-3.114 5.864-5.907 1.226-6.15 2.258-12.336 3.278-18.522 1.396-8.463 4.596-15.305 11.759-21.145 18.856-15.377 20.283-33.323 4.195-51.565-5.494-6.235-7.157-12.324-5.877-19.961 0.607-3.606 1.572-7.297 1.33-10.873-0.777-11.443 4.152-17.642 14.855-22.347 16.513-7.255 24.107-23.203 21.982-41.275-1.105-9.361-2.556-18.85-7.157-27.161-6.35-11.462-8.068-23.555-7.249-36.328 0.231-3.649 0.049-7.321 0.085-10.982 0.249-25.928-1.348-25.115 20.975-33.954 10.29-4.074 13.933-11.966 14.467-23.452 1.099-23.84-6.241-44.262-20.75-62.481-5.464-6.854-8.159-13.933-8.080-22.893 0.449-49.143 3.995-98.214 3.242-147.375-0.091-5.998 0.395-11.607 7.522-13.756 3.163-0.953 5.494-3.248 6.447-6.393 2.805-9.24 8.499-15.371 17.957-17.933 5.452-1.475 7.018-5.968 7.352-10.867 0.395-5.731 0.443-11.492 0.443-17.241 0.024-101.449 0.018-202.905 0.024-304.354 0-4.705 0.176-9.41 0.121-14.115-0.079-6.66 3.011-10.806 9.422-12.627 19.858-5.64 26.554-19.621 26.159-39.236-0.656-32.588 2.125-29.966-29.498-29.972-279.779-0.030-559.553-0.030-839.332-0.006-29.771 0-27.525-1.931-27.616 28.472-0.012 3.139 0.042 6.277 0.097 9.41 0.261 15.523 8.202 25.303 22.541 30.482 15.116 5.458 15.147 5.543 15.147 21.788 0.018 104.066 0.012 208.132 0.018 312.197 0 5.227 0.097 10.46 0.14 15.687 0.042 5.148 1.815 9.070 7.085 10.934 7.953 2.811 13.016 8.42 15.45 16.507 0.443 1.463 1.105 3.46 2.252 4.019 12.044 5.864 9.877 16.883 10.284 27.124 1.767 44.924 2.865 89.86 3.205 134.821 0.085 10.946-2.034 20.113-9.191 28.873-14.716 18.012-18.2 39.406-16.16 62.092 0.51 5.682 2.695 9.956 7.406 13.046 2.185 1.433 4.128 3.418 6.496 4.365 17.581 7.042 22.644 19.767 21.296 38.319-1.257 17.259-0.716 33.972-10.679 49.568-7.528 11.79-7.4 26.013-5.664 39.691 1.833 14.455 10.697 23.209 24.101 28.132 12.919 4.747 12.797 4.954 13.168 18.747 0.352 13.028 0.267 24.927-9.307 36.504-11.456 13.86-8.797 33.456 5.276 43.352 12.123 8.536 16.094 19.463 18.31 32.716 0.898 5.3 0.109 11.425 5.045 17.108zM500.235 6.628c41.822 0 83.644-0.103 125.472 0.055 14.594 0.055 16.47 1.506 16.531 14.412 0.219 50.709 0.030 101.419 0.097 152.128 0.012 7.485-2.835 12.482-9.495 16.519-19.864 12.020-19.858 14.442-2.234 29.862 14.005 12.257 14.418 22.644 1.014 35.369-9.616 9.13-21.236 15.128-33.383 20.149-25.722 10.642-52.494 17.575-79.898 22.061-7.643 1.251-15.135 3.667-23.245 2.131-23.112-4.389-46.199-8.924-68.643-16.027-17.472-5.531-34.743-11.911-49.259-23.549-21.885-17.551-20.58-29.783-1.421-43.291 13.228-9.325 12.706-17.569-1.56-24.289-11.528-5.427-14.254-13.131-14.145-24.775 0.437-47.571 0.115-95.148 0.219-142.719 0.036-16.968 0.996-17.964 17.611-18.012 40.784-0.115 81.561-0.030 122.339-0.024zM293.135 88.899c0 0.036 0 0.079 0 0.115 10.418 0 20.841-0.042 31.259 0.018 4.498 0.030 8.948 1.342 9.167 6.459 0.552 12.882 3.479 26.202-2.556 38.416-3.357 6.799-3.734 12.676-0.158 19.184 4.074 7.419 4.626 15.365-0.273 22.28-21.582 30.451-49.671 33.693-73.936 2.568-5.731-7.346-7.534-15.991-2.307-24.854 2.72-4.614 5.385-10.071 2.058-14.71-7.807-10.885-5.318-23.021-5.391-34.774-0.085-13.441 1.068-14.364 14.011-14.661 9.367-0.219 18.747-0.042 28.126-0.042zM728.024 89.009v-0.049c10.424 0 20.841-0.024 31.259 0.012 4.99 0.018 10.278 0.923 10.235 7.006-0.103 13.289 4.159 27.173-3.8 39.63-3.958 6.198-2.847 11.79 0.583 17.545 4.82 8.086 4.219 16.355-1.196 23.5-15.147 19.985-37.105 33.638-62.444 12.554-2.398-1.997-4.766-4.067-6.89-6.344-8.165-8.748-11.535-18.48-5.652-29.911 2.72-5.294 4.462-10.733 1.068-16.324-7.352-12.099-3.819-25.376-4.237-38.204-0.212-6.399 3.521-9.422 9.817-9.416 10.418 0.006 20.841 0 31.259 0zM847.509 88.997c0 0 0-0.018 0-0.030 10.424 0 20.841-0.024 31.265 0.012 5.002 0.018 10.053 0.977 10.339 7.018 0.589 12.397 3.29 25.267-2.21 36.971-3.448 7.34-4.104 13.477-0.358 20.629 5.615 10.709 2.78 20.592-5.312 28.545-25.412 24.951-41.901 22.966-65.644 0.225-8.341-7.989-11.911-18.395-5.16-29.814 2.762-4.668 4.826-9.871 1.39-14.704-8.772-12.33-4.541-26.171-5.257-39.424-0.346-6.465 3.375-9.434 9.689-9.428 10.418 0.012 20.841 0 31.259 0zM172.963 88.936v0.042c10.424 0 20.841-0.024 31.265 0.012 4.389 0.012 9.355 0.771 9.659 5.822 0.741 12.366 3.946 25.576-1.876 36.886-4.328 8.414-5.883 15.037-0.832 23.039 4.055 6.423 2.72 12.925-0.37 19.354-11.996 24.945-40.565 32.187-62.693 15.827-2.088-1.542-4.11-3.218-5.968-5.027-9.392-9.143-13.896-19.439-7.406-32.272 2.143-4.237 4.492-8.973 1.651-13.356-7.777-11.996-4.917-25.249-4.936-38.052-0.018-10.387 1.694-11.796 11.82-12.178 9.871-0.395 19.785-0.097 29.686-0.097zM576.126 391.578c-0.085 1.433-0.097 5.603-0.613 9.713-0.735 5.816-4.286 9.568-9.986 10.448-5.731 0.88-10.235-1.888-12.749-6.969-4.583-9.27-4.043-19.159-2.349-28.97 0.601-3.485 3.77-4.559 7.006-5.178 13.89-2.659 18.601 1.912 18.692 20.956zM418.57 392.227c-0.127 1.39 0.103 6.217-1.147 10.624-1.864 6.575-6.526 10.666-13.805 10.254-7.589-0.431-10.873-5.373-11.431-12.354-0.37-4.65-0.455-9.355-0.255-14.011 0.492-11.292 5.294-14.886 18.789-14.588 10.26 0.231 7.024 8.105 7.825 13.684 0.146 1.020 0.024 2.076 0.024 6.393zM602.534 388.846c-0.024-16.646 3.333-19.147 19.159-14.716 3.904 1.093 6.903 2.896 7.048 7.097 0.243 7.236 0.407 14.521-0.158 21.727-0.455 5.749-4.213 9.404-10.035 10.284-6.429 0.965-11.012-1.748-13.884-7.57-2.647-5.385-1.937-11.152-2.131-16.822zM444.82 389.447c0.273-3.916 0.127-8.135 0.941-12.16 1.354-6.708 7.097-6.726 12.293-6.896 5.166-0.176 11.516-0.783 12.791 5.834 1.761 9.155 2.125 18.601-2.028 27.476-2.525 5.397-7.115 7.388-12.779 6.811-5.919-0.601-9.361-4.231-10.308-9.974-0.589-3.564-0.613-7.224-0.911-11.091zM365.426 393.612c-0.231 5.136 0.389 10.375-1.864 15.268-3.236 7.036-10.32 10.976-16.154 8.693-6.811-2.665-8.997-8.475-8.444-15.068 0.65-7.758-3.94-17.132 5.342-22.62 12.567-7.431 21.072-1.761 21.12 13.726zM682.207 396.629c0 2.586 0.231 5.191-0.042 7.746-0.929 8.791-5.221 13.951-11.528 14.145-5.907 0.182-12.439-5.197-13.981-12.482-0.953-4.486-0.868-9.246-0.832-13.884 0.109-14.2 4.626-17.041 18.091-13.034 9.859 2.938 8.196 10.466 8.293 17.508zM497.861 388.026c0.176-0.006 0.346-0.018 0.522-0.024 0-3.649-0.146-7.309 0.030-10.952 0.37-7.771 5.646-8.936 12.008-8.912 6.217 0.030 11.796 0.832 12.384 8.584 0.589 7.807 1.026 15.681-0.619 23.403-1.36 6.374-5.458 10.065-12.202 9.804-6.010-0.231-9.671-3.837-10.879-9.483-0.868-4.043-0.862-8.275-1.245-12.421zM312.41 400.757c-0.188 3.048-0.030 6.739-0.704 10.272-1.481 7.783-6.654 12.063-13.902 12.057-7.443-0.006-11.237-3.94-12.002-13.131-0.389-4.632-0.425-9.355 0-13.981 0.692-7.449 16.944-14.54 23.294-10.351 1.864 1.226 2.665 3.12 2.823 5.245 0.231 3.096 0.316 6.204 0.492 9.889zM735.345 400.441c0 5.215 0.115 7.813-0.024 10.393-0.34 6.302-2.853 10.988-9.671 12.148-6.957 1.178-13.447-2.629-15.505-9.871-1.111-3.897-1.135-8.177-1.202-12.293-0.285-16.804 1.706-17.872 17.636-14.515 10.776 2.264 8.444 9.889 8.766 14.139z" />
<glyph unicode="&#xe930;" glyph-name="factory-1" d="M215.274 521.225l125.357 44.289v284.243h-125.357zM558.872 521.225l125.453 44.289v284.243h-125.453zM62.129-64h899.79v306.1h-899.79v-306.1zM493.060 194.941h96.517v-154.437h-96.517v154.437zM322.457 194.941h96.565v-154.437h-96.565v154.437zM145.541 194.941h96.469v-154.437h-96.469v154.437zM749.467 423.321l-24.631 125.023-312.796-125.023-37.449 125.023-312.461-125.023v-133.297h899.743v133.297zM158.598 870.131c15.735 2.965 27.884 11.814 37.497 21.475 9.996 9.805 17.649 19.61 29.079 25.492 10.809 6.074 24.584 7.796 33.48 6.026 8.513-1.483 13.966-5.165 20.279-14.875 5.931-9.279 10.235-21.092 15.496-33.48h2.535c4.496 13.296 4.687 27.453 0.143 41.754-2.391 7.126-6.505 14.444-13.392 20.231-6.744 5.931-16.74 8.753-25.014 7.796-17.218-2.104-27.31-12.961-38.023-20.423-10.57-7.652-21.523-15.975-32.619-20.949-11.431-4.926-22.814-8.322-32.762-8.944-10.092-0.239-17.936 3.013-25.779 8.992-16.214 12.053-29.175 34.293-42.806 56.772l-2.535-0.478c-1.722-26.975 4.783-55.768 28.123-77.625 11.861-10.618 30.706-15.448 46.298-11.766zM546.915 867.931c11.861 2.439 20.279 9.326 26.927 16.931 6.457 7.27 11.766 14.492 19.61 18.27 7.557 4.065 17.649 3.778 22.575 2.009 4.448-1.626 6.552-2.248 11.335-8.322 4.305-5.692 8.035-13.535 13.153-22.001h2.583c4.639 9.374 5.309 19.562 2.439 30.275-1.578 5.309-4.639 10.953-9.9 15.496-5.165 4.735-13.153 6.839-19.514 5.979-13.153-2.057-19.753-10.953-27.119-16.405-7.318-5.739-15.162-10.857-23.34-13.87-8.035-2.487-15.975-4.209-21.905-4.257-6.17 0.335-10.044 2.391-14.827 5.787-10.187 6.935-20.183 21.331-32.045 36.302l-2.535-0.526c-3.587-19.418 0-40.367 17.266-57.107 8.992-8.083 23.627-11.67 35.297-8.561z" />
<glyph unicode="&#xe931;" glyph-name="home-modern-1" d="M738.656 558.016v90.304l29.92-3.52v67.68l-361.248 55.296-407.328-77.536v-79.136l37.76 5.248v-219.904h109.536v-205.248l520-63.008 92 11.136v263.424l163.424-0.512v-243.072l75.936 9.184v321.216l25.344-1.248v48.128l-285.344 21.568zM701.888 617.056v-79.2l-108.832-2.016v92.288l108.832-11.072zM94.336 604.128l247.008 31.328v-176.32l-247.008-8.192v153.184zM195.808 237.92v158.56h101.824v-167.808l-101.824 9.248zM323.52 226.912v169.632h83.776v0.32h34.016v-180.64l-117.792 10.688zM466.144 212.928v183.872l137.184-0.032v-196.384l-137.184 12.544z" />
</font>
</defs>
</svg>
